<svg width="447" height="447" viewBox="0 0 447 447" fill="none" xmlns="http://www.w3.org/2000/svg">
<g id="astronaut (2)">
<g clip-path="url(#clip0)">
<g id="Group">
<path id="Vector" d="M328.065 352.545L348.324 350.306L328.065 348.066L325.825 327.805L323.584 348.066L303.324 350.306L323.584 352.545L325.825 372.805L328.065 352.545Z" fill="white"/>
<path id="Vector_2" d="M326.646 102.992L346.906 100.752L326.646 98.5127L324.406 78.252L322.166 98.5127L301.906 100.752L322.166 102.992L324.406 123.253L326.646 102.992Z" fill="white"/>
<path id="Vector_3" d="M94.855 307.914L116.016 305.575L94.855 303.235L92.5156 282.075L90.1763 303.235L69.0156 305.575L90.1763 307.914L92.5156 329.075L94.855 307.914Z" fill="white"/>
<path id="Vector_4" d="M390.032 223.924L385.789 228.167L390.032 232.41L394.274 228.167L390.032 223.924Z" fill="white"/>
<path id="Vector_5" d="M58.854 174.15L53.9043 179.1L58.854 184.05L63.8038 179.1L58.854 174.15Z" fill="white"/>
<path id="Vector_6" d="M271.448 385.954L267.205 390.196L271.448 394.439L275.69 390.196L271.448 385.954Z" fill="white"/>
<path id="Vector_7" d="M233.233 70.3935L228.283 75.3433L233.233 80.293L238.183 75.3433L233.233 70.3935Z" fill="white"/>
</g>
<path id="Vector_8" d="M92.9955 83.9955L102 83L92.9955 82.0045L92 73L91.0045 82.0045L82 83L91.0045 83.9955L92 93L92.9955 83.9955Z" fill="white"/>
<g id="Group 2">
<path id="Vector_9" d="M233.658 140.992L224.386 147.211C223.335 147.917 222.254 148.547 221.151 149.096L221.145 149.087C220.729 146.377 200.355 159.966 198.93 162.336C210.158 179.075 215.899 188.078 198.723 162.475L176.892 129.928L176.798 129.788L176.375 129.158L171.031 121.191L172.423 120.257L205.061 98.3634L210.828 106.961" fill="#E6E6E6"/>
<path id="Vector_10" d="M138.786 98.0145L184.357 67.4535L190.323 76.3489L145.101 106.689L144.759 106.919L138.786 98.0145Z" fill="#FFD042"/>
<path id="Vector_11" d="M144.761 106.919L145.103 106.69L190.325 76.3495L199.287 89.7104L199.27 89.7221L205.066 98.3638L172.428 120.258L171.036 121.191L165.239 112.55C158.88 116.821 150.265 115.124 145.995 108.758L144.761 106.919Z" fill="#CCCCCC"/>
<path id="Vector_12" d="M233.898 256.136L194.619 262.666L178.903 288.441L153.426 275.063L173.199 236.411L211.569 222.848" fill="#E6E6E6"/>
<path id="Vector_13" d="M317.528 304.904C317.185 306.645 316.745 308.336 316.208 309.984L341.976 292.693C350.223 287.16 352.424 275.992 346.891 267.745L338.92 255.871L331.891 245.391L309.48 211.982L307.965 211.683L307.309 215.011L302.448 239.681L298.742 258.493L297.886 259.867C312.734 269.038 321.102 286.765 317.528 304.904Z" fill="#CCCCCC"/>
<g id="Group_2">
<path id="Vector_14" d="M291.087 170.535C284.852 176.305 283.373 185.776 287.77 193.231L287.737 193.247L267.101 207.089L248.56 203.436C247.302 203.188 246.096 202.829 244.949 202.367L245.086 202.015L252.586 163.952L252.606 162.847C253.883 162.847 255.18 162.974 256.482 163.231L275.023 166.884L280.173 167.899L285.98 169.043C287.756 169.393 289.458 169.895 291.087 170.535Z" fill="white"/>
<path id="Vector_15" d="M307.963 211.683L307.307 215.011L302.446 239.681L298.74 258.493L297.884 259.866C293.603 257.222 288.787 255.286 283.557 254.255C274.305 252.432 265.154 253.722 257.19 257.388L267.101 207.089L287.737 193.247L287.77 193.231C287.945 193.539 288.136 193.842 288.336 194.14C293.146 201.311 302.141 203.979 309.898 201.093C309.803 202.077 309.661 203.067 309.466 204.055L307.963 211.683Z" fill="white"/>
</g>
<path id="Vector_16" d="M162.851 173.585L191.059 154.67L191.1 154.731L199.943 148.799C225.631 131.568 260.402 138.419 277.632 164.107L280.175 167.898L275.025 166.883L256.484 163.23C255.182 162.973 247.304 203.187 248.562 203.435L267.103 207.089L257.193 257.387C254.794 258.496 252.503 259.821 250.344 261.334L248.84 260.756L204.659 194.883L188.917 205.442L185.678 207.615L176.406 213.834C175.355 214.539 174.275 215.17 173.171 215.719L173.165 215.71C172.749 213 171.742 210.324 170.103 207.881C164.142 198.995 152.103 196.622 143.217 202.584C140.75 204.232 138.798 206.348 137.374 208.718C136.542 207.772 135.762 206.759 135.039 205.683L128.913 196.554L128.819 196.414L128.396 195.783L123.052 187.816L124.444 186.883L157.083 164.989L162.851 173.585Z" fill="#F2F2F2"/>
<g id="Group_3">
<path id="Vector_17" d="M90.8047 164.639L136.374 134.078L142.341 142.973L97.1192 173.314L96.7775 173.543L90.8047 164.639Z" fill="#FFD042"/>
<path id="Vector_18" d="M137.371 208.719C138.796 206.348 140.747 204.233 143.215 202.584C152.101 196.623 164.14 198.995 170.101 207.882C171.739 210.324 172.747 213 173.163 215.711L173.168 215.72C171.691 216.469 170.172 217.082 168.634 217.561C162.429 219.484 155.825 219.293 149.844 217.179C145.134 215.515 140.817 212.665 137.371 208.719Z" fill="#FFD042"/>
<path id="Vector_19" d="M287.976 192.974C283.579 185.521 285.058 176.048 291.293 170.279C303.579 175.062 311.379 187.533 310.102 200.836C302.345 203.723 293.35 201.053 288.541 193.884C288.342 193.586 288.151 193.282 287.976 192.974Z" fill="#FFD042"/>
</g>
<path id="Vector_20" d="M96.7808 173.543L97.1225 173.314L142.344 142.974L151.307 156.334L151.289 156.346L157.086 164.988L124.447 186.882L123.055 187.815L117.258 179.174C110.9 183.445 102.285 181.748 98.0147 175.382L96.7808 173.543Z" fill="#CCCCCC"/>
<path id="Vector_21" d="M248.84 260.757L250.345 261.335C244.739 265.299 240.054 270.606 236.841 276.887L225.89 260.551L225.882 260.55L203.561 227.264L203.554 227.262L201.633 224.4L201.635 224.393L188.918 205.445L204.66 194.885L248.84 260.757Z" fill="#E6E6E6"/>
<path id="Vector_22" d="M314.61 256.977L315.397 256.457L330.062 246.619L331.892 245.391L338.921 255.872L337.092 257.099L322.427 266.936L321.64 267.457L314.61 256.977Z" fill="#F2F2F2"/>
<path id="Vector_23" d="M244.951 202.367L237.637 207.273C235.442 208.746 232.56 206.828 233.071 204.234L234.258 198.21L229.057 196.681C223.113 194.934 219.481 188.946 220.678 182.868L222.591 173.16C223.688 167.596 228.535 163.562 234.206 163.495L256.483 163.231L248.561 203.436" fill="#FFD042"/>
<path id="Vector_24" d="M284.004 250.936C259.969 246.2 236.646 261.845 231.911 285.88C227.175 309.915 242.82 333.238 266.854 337.974C290.889 342.709 314.212 327.064 318.948 303.03C323.684 278.995 308.039 255.672 284.004 250.936Z" fill="#F2F2F2"/>
<path id="Vector_25" d="M238.359 304.808C240.323 321.937 258.99 333.865 280.054 331.451C301.118 329.036 316.601 313.193 314.638 296.064C312.674 278.935 294.006 267.007 272.943 269.422C251.879 271.836 236.395 287.68 238.359 304.808Z" fill="#51BEE5"/>
</g>
<path id="Vector_26" d="M244.213 298.299C244.149 304.886 247.936 310.264 252.67 310.31C257.405 310.355 261.295 305.053 261.359 298.465C261.423 291.878 257.636 286.5 252.902 286.454C248.167 286.408 244.277 291.711 244.213 298.299Z" fill="#73D5EF"/>
<path id="Vector_27" d="M178.905 288.442L183.231 299.186C184.356 301.981 181.933 304.908 178.977 304.326L175.605 303.661L169.374 312.652C165.65 318.027 158.517 319.81 152.701 316.821L150.393 315.634C144.489 312.6 141.808 305.611 144.168 299.406L153.427 275.064L178.905 288.442Z" fill="#FFD042"/>
</g>
</g>
<defs>
<clipPath id="clip0">
<rect x="372.832" y="446.293" width="380" height="380" transform="rotate(-168.853 372.832 446.293)" fill="white"/>
</clipPath>
</defs>
</svg>
