<svg width="440" height="440" viewBox="0 0 440 440" fill="none" xmlns="http://www.w3.org/2000/svg">
<g id="Astronauti">
<g id="Group">
<path id="Vector" d="M275.856 357.644L301.068 354.857L275.856 352.069L273.069 326.856L270.28 352.069L245.068 354.857L270.28 357.644L273.069 382.856L275.856 357.644Z" fill="white"/>
<path id="Vector_2" d="M170.257 47.0122L182.863 45.6189L170.257 44.2251L168.863 31.6187L167.469 44.2251L154.863 45.6189L167.469 47.0122L168.863 59.6187L170.257 47.0122Z" fill="white"/>
<path id="Vector_3" d="M57.4966 126.783L66.9512 125.738L57.4966 124.693L56.4513 115.238L55.4057 124.693L45.9512 125.738L55.4057 126.783L56.4513 136.238L57.4966 126.783Z" fill="white"/>
<path id="Vector_4" d="M102.54 345.607L116.947 344.014L102.54 342.422L100.947 328.014L99.3544 342.422L84.9473 344.014L99.3544 345.607L100.947 360.014L102.54 345.607Z" fill="white"/>
<path id="Vector_5" d="M399.338 130.973L408.793 129.928L399.338 128.883L398.293 119.428L397.248 128.883L387.793 129.928L397.248 130.973L398.293 140.428L399.338 130.973Z" fill="white"/>
<path id="Vector_6" d="M188.24 406.697L198.145 405.602L188.24 404.508L187.145 394.603L186.049 404.508L176.145 405.602L186.049 406.697L187.145 416.603L188.24 406.697Z" fill="white"/>
<path id="Vector_7" d="M25.5833 240.02L29.1133 243.561L32.6432 240.02L29.1133 236.479L25.5833 240.02Z" fill="white"/>
<path id="Vector_8" d="M258.72 258.616L262.25 262.157L265.78 258.616L262.25 255.075L258.72 258.616Z" fill="white" fill-opacity="0.8"/>
<path id="Vector_9" d="M290.915 34.083L295.857 39.0405L300.799 34.083L295.857 29.1254L290.915 34.083Z" fill="white"/>
<path id="Vector_10" d="M145.425 108.832L148.955 112.374L152.485 108.832L148.955 105.291L145.425 108.832Z" fill="white"/>
<path id="Vector_11" d="M343.849 302.991L347.379 306.532L350.909 302.991L347.379 299.45L343.849 302.991Z" fill="white"/>
</g>
<g id="Astronaut 1">
<path id="Vector_12" d="M145.209 288.19L150.705 282.677C151.329 282.052 151.982 281.474 152.662 280.949L152.667 280.954C153.316 282.755 165.404 270.692 166.058 268.876C156.136 258.922 151.002 253.528 166.181 268.753L185.474 288.107L185.557 288.19L185.931 288.565L190.654 293.303L189.829 294.131L170.48 313.54L165.384 308.427" fill="#E6E6E6"/>
<path id="Vector_13" d="M215.798 304.831L188.783 331.925L183.51 326.635L210.317 299.739L210.519 299.536L215.798 304.831Z" fill="#FFD042"/>
<path id="Vector_14" d="M210.518 299.535L210.316 299.739L183.509 326.635L175.589 318.69L175.599 318.679L170.477 313.54L189.825 294.131L190.65 293.303L195.773 298.442C199.541 294.657 205.655 294.657 209.428 298.442L210.518 299.535Z" fill="#CCCCCC"/>
<path id="Vector_15" d="M129.547 209.322L155.498 199.544L162.764 179.76L181.968 185.487L173.664 214.643L149.279 229.117" fill="#E6E6E6"/>
<path id="Vector_16" d="M65.858 187.196C65.858 185.956 65.9308 184.738 66.076 183.536L50.8017 198.864C45.9125 203.768 45.9125 211.718 50.8017 216.623L57.8446 223.683L64.0567 229.915L83.8622 249.783H84.9369V247.414V229.852V216.461L85.3369 215.404C73.9597 211.125 65.858 200.108 65.858 187.196Z" fill="#CCCCCC"/>
<g id="Group_2">
<path id="Vector_17" d="M102.002 275.7C105.485 270.904 105.22 264.214 101.213 259.7L101.234 259.685L113.466 247.413H126.623C127.516 247.413 128.388 247.497 129.234 247.658L129.187 247.918V275.012L129.322 275.773C128.45 275.945 127.547 276.033 126.623 276.033H113.466H109.812H105.691C104.431 276.033 103.201 275.918 102.002 275.7Z" fill="white"/>
<path id="Vector_18" d="M84.9375 249.783V247.414V229.853V216.462L85.3374 215.405C88.6176 216.639 92.1675 217.315 95.8786 217.315C102.444 217.315 108.522 215.196 113.468 211.609V247.414L101.235 259.685L101.214 259.701C101.054 259.513 100.882 259.331 100.705 259.154C96.4547 254.89 89.9513 254.276 85.0414 257.301C84.9737 256.613 84.9375 255.916 84.9375 255.213V249.783Z" fill="white"/>
</g>
<path id="Vector_19" d="M189.191 256.296L172.469 273.066L172.433 273.03L167.19 278.288C151.963 293.564 127.289 293.564 112.062 278.288L109.814 276.034H113.469H126.626C127.549 276.034 127.518 247.414 126.626 247.414H113.469V211.609C114.958 210.526 116.344 209.308 117.615 207.98L118.721 208.173L157.766 247.347L167.098 237.986L169.018 236.06L174.514 230.546C175.138 229.921 175.791 229.343 176.471 228.818L176.476 228.823C177.125 230.624 178.173 232.322 179.621 233.774C184.889 239.059 193.432 239.059 198.7 233.774C200.163 232.311 201.211 230.598 201.866 228.781C202.561 229.318 203.23 229.906 203.869 230.546L209.282 235.975L209.365 236.058L209.739 236.433L214.462 241.171L213.637 241.998L194.288 261.408L189.191 256.296Z" fill="#F2F2F2"/>
<g id="Group_3">
<path id="Vector_20" d="M239.606 252.698L212.592 279.793L207.318 274.503L234.125 247.607L234.327 247.403L239.606 252.698Z" fill="#FFD042"/>
<path id="Vector_21" d="M201.866 228.781C201.211 230.598 200.163 232.311 198.7 233.773C193.432 239.058 184.889 239.058 179.621 233.773C178.173 232.321 177.125 230.623 176.476 228.822L176.471 228.817C177.379 228.104 178.334 227.479 179.32 226.943C183.3 224.787 187.837 224.027 192.207 224.668C195.648 225.172 198.98 226.542 201.866 228.781Z" fill="#FFD042"/>
<path id="Vector_22" d="M101.109 259.904C105.116 264.417 105.381 271.108 101.898 275.903C92.8625 274.284 85.8557 266.792 84.9375 257.504C89.8474 254.479 96.3509 255.093 100.601 259.357C100.777 259.534 100.949 259.716 101.109 259.904Z" fill="#FFD042"/>
</g>
<path id="Vector_23" d="M234.327 247.404L234.124 247.607L207.318 274.503L199.398 266.558L199.408 266.547L194.285 261.408L213.633 241.999L214.459 241.171L219.581 246.31C223.35 242.525 229.463 242.525 233.237 246.31L234.327 247.404Z" fill="#CCCCCC"/>
<path id="Vector_24" d="M118.719 208.173L117.613 207.98C120.909 204.507 123.395 200.238 124.745 195.5L134.424 205.215H134.429L154.156 225.01H154.162L155.859 226.713V226.718L167.095 237.985L157.764 247.346L118.719 208.173Z" fill="#E6E6E6"/>
<path id="Vector_25" d="M74.3014 219.643L73.8343 220.106L65.1409 228.827L64.0563 229.916L57.8438 223.683L58.9284 222.595L67.6217 213.874L68.0888 213.411L74.3014 219.643Z" fill="#F2F2F2"/>
<path id="Vector_26" d="M129.235 247.658L133.57 243.309C134.872 242.004 137.098 242.928 137.098 244.775V249.064L140.857 249.409C145.152 249.803 148.44 253.416 148.44 257.743V264.654C148.44 268.614 145.671 272.033 141.807 272.845L126.625 276.033V247.413" fill="#FFD042"/>
<path id="Vector_27" d="M96.0215 219.65C113.077 219.65 126.902 205.781 126.902 188.672C126.902 171.563 113.077 157.693 96.0215 157.693C78.9665 157.693 65.1406 171.563 65.1406 188.672C65.1406 205.781 78.9665 219.65 96.0215 219.65Z" fill="#F2F2F2"/>
<path id="Vector_28" d="M119.949 176.572C116.303 165.1 101.946 159.447 87.8826 163.945C73.8194 168.444 65.3752 181.391 69.0219 192.863C72.6687 204.335 87.0255 209.988 101.089 205.49C115.152 200.991 123.596 188.044 119.949 176.572Z" fill="#51BEE5"/>
<path id="Vector_29" d="M116.827 181.824C115.984 177.301 112.674 174.127 109.434 174.735C106.193 175.343 104.25 179.502 105.093 184.025C105.936 188.547 109.246 191.721 112.486 191.113C115.727 190.505 117.67 186.346 116.827 181.824Z" fill="#73D5EF"/>
<path id="Vector_30" d="M162.765 179.76L158.364 172.981C157.22 171.218 158.48 168.885 160.578 168.885H162.971L166.017 161.883C167.838 157.697 172.47 155.512 176.845 156.775L178.581 157.277C183.023 158.559 185.794 162.986 185.018 167.556L181.969 185.487L162.765 179.76Z" fill="#FFD042"/>
</g>
<g id="Astronaut 2">
<path id="Vector_31" d="M361.27 178.108L357.625 184.995C357.212 185.776 356.852 186.572 356.551 187.378L356.558 187.381C358.465 187.476 350.51 202.604 348.97 203.764C336.575 197.164 329.93 193.821 348.888 203.918L372.988 216.752L373.092 216.807L373.559 217.056L379.458 220.197L380.005 219.163L392.835 194.919L386.469 191.529" fill="#E6E6E6"/>
<path id="Vector_32" d="M397.812 240.937L415.72 207.088L409.133 203.58L391.353 237.172L391.218 237.426L397.812 240.937Z" fill="#FFD042"/>
<path id="Vector_33" d="M391.217 237.425L391.351 237.171L409.132 203.579L399.239 198.311L399.232 198.324L392.833 194.916L380.003 219.16L379.456 220.194L385.855 223.602C383.351 228.325 385.142 234.189 389.856 236.699L391.217 237.425Z" fill="#CCCCCC"/>
<path id="Vector_34" d="M292.013 158.158L279.326 182.883L258.894 187.831L262.341 207.629L292.171 202.732L309.328 180.112" fill="#E6E6E6"/>
<path id="Vector_35" d="M277.484 92.1344C276.257 91.9909 275.042 91.9224 273.835 91.9278L290.781 78.4839C296.204 74.1804 304.075 75.1013 308.365 80.5411L314.54 88.3764L319.991 95.288L337.369 117.324L337.244 118.395L334.899 118.12L317.51 116.086L304.251 114.535L303.158 114.811C300.239 102.979 290.269 93.6301 277.484 92.1344Z" fill="#CCCCCC"/>
<path id="Vector_36" d="M358.9 132.001C356.616 137.473 350.901 136.941 344.976 135.842L331.399 146.318L330.007 159.937L348.046 167.933C348.508 168.699 349.031 169.403 349.607 170.046L349.804 169.871L372.906 155.834L373.624 155.555C373.319 154.718 372.926 153.898 372.448 153.105L365.631 141.816L363.738 138.681L361.603 135.145C360.95 134.063 359.708 132.916 358.9 132.001Z" fill="white"/>
<path id="Vector_37" d="M337.241 118.396L334.896 118.122L317.508 116.087L304.248 114.536L303.156 114.812C303.998 118.224 304.256 121.839 303.826 125.537C303.066 132.079 300.264 137.889 296.139 142.402L331.59 146.549L345.158 135.782L345.176 135.763C345.009 135.581 344.848 135.389 344.693 135.193C340.964 130.463 341.109 123.912 344.673 119.37C344 119.223 343.314 119.106 342.617 119.025L337.241 118.396Z" fill="white"/>
<path id="Vector_38" d="M331.616 223.026L350.157 208.307L350.125 208.267L355.94 203.652C372.829 190.249 375.687 165.664 362.325 148.722L360.354 146.222L359.93 149.863L358.406 162.972C358.299 163.893 329.965 160.547 330.068 159.657L331.592 146.548L296.141 142.4C294.895 143.759 293.529 144.999 292.067 146.112L292.13 147.236L326.395 190.678L316.045 198.892L313.915 200.582L307.819 205.42C307.128 205.968 306.48 206.552 305.881 207.169L305.886 207.175C307.594 208.03 309.154 209.271 310.424 210.882C315.046 216.743 314.057 225.256 308.214 229.892C306.596 231.181 304.779 232.027 302.904 232.468C303.355 233.223 303.86 233.958 304.419 234.669L309.167 240.691L309.24 240.784L309.568 241.199L313.712 246.454L314.627 245.728L336.086 228.698L331.616 223.026Z" fill="#F2F2F2"/>
<g id="Group_4">
<path id="Vector_39" d="M322.214 272.845L352.17 249.066L347.543 243.199L317.807 266.794L317.582 266.972L322.214 272.845Z" fill="#FFD042"/>
<path id="Vector_40" d="M302.903 232.469C304.778 232.028 306.596 231.182 308.214 229.893C314.056 225.256 315.046 216.744 310.424 210.883C309.153 209.272 307.594 208.031 305.885 207.175L305.881 207.17C305.069 207.992 304.34 208.871 303.695 209.792C301.1 213.508 299.821 217.94 299.95 222.369C300.05 225.856 301.021 229.335 302.903 232.469Z" fill="#FFD042"/>
<path id="Vector_41" d="M344.715 135.471C348.72 139.986 355.314 141.025 360.465 138.111C365.861 134.902 353.021 121.071 343.93 119.08C340.366 123.621 340.503 130.173 344.232 134.902C344.387 135.097 344.548 135.29 344.715 135.471Z" fill="#FFD042"/>
</g>
<path id="Vector_42" d="M317.581 266.971L317.806 266.792L347.542 243.198L340.593 234.386L340.581 234.395L336.086 228.695L314.627 245.726L313.712 246.452L318.207 252.151C314.022 255.468 313.314 261.559 316.625 265.758L317.581 266.971Z" fill="#CCCCCC"/>
<path id="Vector_43" d="M292.131 147.235L292.068 146.111C288.247 148.992 283.732 150.975 278.885 151.771L287.383 162.54L287.382 162.546L304.697 184.495L304.696 184.5L306.185 186.388L306.19 186.389L316.045 198.89L326.394 190.676L292.131 147.235Z" fill="#E6E6E6"/>
<path id="Vector_44" d="M308.632 104.306L309.144 103.895L318.786 96.2427L319.99 95.2881L314.538 88.3759L313.335 89.3306L303.693 96.9825L303.18 97.3942L308.632 104.306Z" fill="#F2F2F2"/>
<path id="Vector_45" d="M349.605 169.346L348.143 175.319C347.704 177.113 349.646 178.544 351.221 177.587L354.877 175.365L357.119 178.411C359.68 181.892 364.464 182.841 368.153 180.599L374.045 177.019C377.422 174.967 378.903 170.821 377.593 167.084L372.446 152.406L348.044 167.234" fill="#FFD042"/>
<path id="Vector_46" d="M306.123 125.948C304.147 142.942 288.813 155.111 271.872 153.129C254.932 151.148 242.801 135.765 244.776 118.771C246.752 101.778 262.086 89.608 279.027 91.5899C295.967 93.5717 308.098 108.954 306.123 125.948Z" fill="#F2F2F2"/>
<path id="Vector_47" d="M260.697 144.8C249.76 139.838 245.826 124.878 251.909 111.386C257.993 97.8948 271.79 90.9807 282.727 95.9433C293.663 100.906 297.598 115.866 291.514 129.357C285.431 142.849 271.634 149.763 260.697 144.8Z" fill="#51BEE5"/>
<path id="Vector_48" d="M266.259 142.296C261.878 140.933 259.119 137.267 260.097 134.108C261.074 130.95 265.417 129.495 269.797 130.859C274.178 132.223 276.936 135.889 275.959 139.047C274.982 142.206 270.639 143.66 266.259 142.296Z" fill="#73D5EF"/>
<path id="Vector_49" d="M258.895 187.831L252.693 182.66C251.08 181.316 248.624 182.302 248.381 184.392L248.103 186.776L240.818 189C236.462 190.33 233.762 194.692 234.506 199.198L234.801 200.985C235.556 205.56 239.618 208.834 244.234 208.59L262.341 207.629L258.895 187.831Z" fill="#FFD042"/>
</g>
</g>
</svg>
