<svg width="27" height="27" viewBox="0 0 27 27" fill="none" xmlns="http://www.w3.org/2000/svg">
<g id="Facebook_white">
<g id="Facebook">
<path id="Combined-Shape" fill-rule="evenodd" clip-rule="evenodd" d="M13.4116 0.0642641C6.02721 0.0996953 0.0697383 6.11462 0.10517 13.499C0.140601 20.8833 6.15552 26.8408 13.5399 26.8054C20.9242 26.7699 26.8817 20.755 26.8463 13.3707C26.8108 5.98631 20.7959 0.0288329 13.4116 0.0642641ZM14.872 14.0155L14.9069 21.2898L11.8972 21.3042L11.8623 14.0302L10.3586 14.0374L10.3466 11.5307L11.8502 11.5234L11.843 10.0184C11.8332 7.97339 12.6764 6.75326 15.0887 6.74169L17.097 6.73205L17.1091 9.2391L15.8537 9.24512C14.9147 9.24963 14.8543 9.60025 14.8574 10.254L14.86 11.5087L17.1341 11.4978L16.88 14.0058L14.872 14.0155Z" fill="#131C6D"/>
</g>
</g>
</svg>
