<svg width="27" height="27" viewBox="0 0 27 27" fill="none" xmlns="http://www.w3.org/2000/svg">
<g id="Facebook">
<path id="Combined-Shape" fill-rule="evenodd" clip-rule="evenodd" d="M13.3705 0.0642641C5.9862 0.0996953 0.0287227 6.11462 0.0641539 13.499C0.0995851 20.8833 6.11451 26.8408 13.4989 26.8054C20.8832 26.7699 26.8407 20.755 26.8052 13.3707C26.7698 5.98631 20.7549 0.0288329 13.3705 0.0642641ZM14.8319 14.0155L14.8668 21.2898L11.8571 21.3042L11.8222 14.0302L10.3185 14.0374L10.3065 11.5307L11.8101 11.5234L11.8029 10.0184C11.7931 7.97339 12.6363 6.75326 15.0486 6.74169L17.0569 6.73205L17.069 9.2391L15.8136 9.24512C14.8746 9.24963 14.8141 9.60025 14.8173 10.254L14.8199 11.5087L17.094 11.4978L16.8399 14.0058L14.8319 14.0155Z" fill="#322B6C"/>
</g>
</svg>
