<svg width="26" height="26" viewBox="0 0 26 26" fill="none" xmlns="http://www.w3.org/2000/svg">
<path fill-rule="evenodd" clip-rule="evenodd" d="M12.4999 0.060141C5.59638 0.0932649 0.0268522 5.71649 0.0599762 12.62C0.0931001 19.5235 5.71633 25.093 12.6198 25.0599C19.5233 25.0267 25.0928 19.4035 25.0597 12.5C25.0266 5.59654 19.4033 0.0270171 12.4999 0.060141ZM13.8662 13.1024L13.8988 19.903L11.0851 19.9165L11.0524 13.1162L9.64667 13.1229L9.63543 10.7794L11.0412 10.7726L11.0344 9.36561C11.0253 7.45377 11.8136 6.3131 14.0688 6.30228L15.9463 6.29327L15.9576 8.63706L14.784 8.64269C13.9061 8.6469 13.8496 8.97469 13.8525 9.58591L13.8549 10.7589L15.981 10.7487L15.7434 13.0934L13.8662 13.1024Z" fill="#322B6C"/>
</svg>
