<svg width="21" height="22" viewBox="0 0 21 22" fill="none" xmlns="http://www.w3.org/2000/svg">
<path id="Combined-Shape" fill-rule="evenodd" clip-rule="evenodd" d="M10.0389 0.991082C4.51616 1.01758 0.0605443 5.51616 0.0870434 11.0389C0.113543 16.5617 4.61213 21.0174 10.1349 20.9909C15.6577 20.9644 20.1133 16.4658 20.0868 10.943C20.0603 5.4202 15.5617 0.964582 10.0389 0.991082ZM11.1312 11.4252L11.1573 16.8657L8.90626 16.8765L8.88016 11.4362L7.75555 11.4416L7.74656 9.56682L8.87116 9.56143L8.86576 8.43579C8.85842 6.90632 9.48908 5.99379 11.2932 5.98513L12.7953 5.97793L12.8043 7.85295L11.8654 7.85746C11.1631 7.86083 11.1179 8.12306 11.1202 8.61204L11.1222 9.55041L12.823 9.54225L12.633 11.418L11.1312 11.4252Z" fill="#F2F2F2" fill-opacity="0.9"/>
</svg>
