<svg width="25" height="25" viewBox="0 0 25 25" fill="none" xmlns="http://www.w3.org/2000/svg">
<g id="Info">
<circle id="Ellipse" cx="12.5" cy="12.5" r="12.5" fill="#333333" fill-opacity="0.8"/>
<g id="info">
<g clip-path="url(#clip0)">
<g id="Group">
<path id="Vector" d="M15.3249 17.4318L15.1211 18.2618C14.5096 18.5022 14.0211 18.6852 13.6574 18.811C13.2933 18.9372 12.8702 19 12.3881 19C11.6478 19 11.072 18.8194 10.6614 18.4606C10.2507 18.1003 10.0453 17.6439 10.0453 17.0901C10.0453 16.8757 10.0602 16.6552 10.0912 16.4306C10.1224 16.2057 10.1721 15.9524 10.2401 15.6692L11.0043 12.9749C11.0723 12.7169 11.1301 12.4725 11.1764 12.2413C11.2233 12.0116 11.2459 11.8002 11.2459 11.6099C11.2459 11.2659 11.1744 11.0252 11.032 10.8899C10.8896 10.7549 10.6179 10.6864 10.2146 10.6864C10.017 10.6864 9.81399 10.718 9.60702 10.7789C9.39913 10.8401 9.22145 10.8992 9.07227 10.9542L9.27662 10.1236C9.77725 9.92052 10.2558 9.74666 10.7135 9.60236C11.1713 9.45767 11.6038 9.38526 12.0129 9.38526C12.7481 9.38526 13.3154 9.56225 13.7137 9.91623C14.1121 10.2705 14.3113 10.7297 14.3113 11.2955C14.3113 11.4126 14.2982 11.6189 14.2701 11.9138C14.2426 12.2093 14.1915 12.48 14.117 12.7263L13.356 15.4098C13.2937 15.6253 13.2376 15.8718 13.1888 16.149C13.1385 16.4245 13.1144 16.6349 13.1144 16.7761C13.1144 17.1324 13.1942 17.3757 13.3541 17.505C13.5151 17.6344 13.7926 17.6987 14.1867 17.6987C14.3717 17.6987 14.5822 17.666 14.8161 17.6018C15.0493 17.5376 15.2194 17.4812 15.3249 17.4318ZM15.5179 6.16571C15.5179 6.63326 15.341 7.03256 14.9855 7.36088C14.6309 7.69038 14.2037 7.85526 13.7038 7.85526C13.2024 7.85526 12.7741 7.69038 12.4154 7.36088C12.0575 7.03243 11.8781 6.63326 11.8781 6.16571C11.8781 5.69908 12.0575 5.29913 12.4154 4.96664C12.7734 4.63467 13.2025 4.46875 13.7038 4.46875C14.2035 4.46875 14.6309 4.63506 14.9855 4.96664C15.3413 5.29913 15.5179 5.69921 15.5179 6.16571Z" fill="white"/>
</g>
</g>
</g>
</g>
<defs>
<clipPath id="clip0">
<rect x="5" y="4" width="16" height="15" fill="white"/>
</clipPath>
</defs>
</svg>
