<svg width="28" height="27" viewBox="0 0 28 27" fill="none" xmlns="http://www.w3.org/2000/svg">
<g id="Instagram">
<path id="Combined-Shape" fill-rule="evenodd" clip-rule="evenodd" d="M13.8727 0.0639648C6.48822 0.0639648 0.501953 6.05023 0.501953 13.4347C0.501953 20.8191 6.48822 26.8054 13.8727 26.8054C21.2571 26.8054 27.2434 20.8191 27.2434 13.4347C27.2434 6.05023 21.2571 0.0639648 13.8727 0.0639648ZM10.9327 6.34694C11.6934 6.31232 11.9364 6.30385 13.8731 6.30385H13.8709C15.8082 6.30385 16.0503 6.31232 16.811 6.34694C17.5701 6.3817 18.0886 6.50189 18.5432 6.67824C19.0127 6.86023 19.4094 7.10388 19.806 7.50054C20.2027 7.89691 20.4464 8.29477 20.6291 8.76379C20.8044 9.21721 20.9247 9.7354 20.9604 10.4946C20.9946 11.2552 21.0035 11.4983 21.0035 13.435C21.0035 15.3717 20.9946 15.6141 20.9604 16.3748C20.9247 17.1336 20.8044 17.652 20.6291 18.1056C20.4464 18.5744 20.2027 18.9723 19.806 19.3687C19.4098 19.7653 19.0126 20.0096 18.5437 20.1917C18.09 20.368 17.5712 20.4882 16.812 20.523C16.0514 20.5576 15.8091 20.5661 13.8722 20.5661C11.9357 20.5661 11.6928 20.5576 10.9321 20.523C10.1731 20.4882 9.65475 20.368 9.20103 20.1917C8.73231 20.0096 8.33445 19.7653 7.93823 19.3687C7.54171 18.9723 7.29807 18.5744 7.11578 18.1054C6.93958 17.652 6.81939 17.1338 6.78448 16.3746C6.75001 15.614 6.74139 15.3717 6.74139 13.435C6.74139 11.4983 6.75031 11.2551 6.78433 10.4944C6.8185 9.73555 6.93884 9.21721 7.11563 8.76364C7.29836 8.29477 7.54201 7.89691 7.93868 7.50054C8.33505 7.10402 8.73291 6.86038 9.20192 6.67824C9.65534 6.50189 10.1735 6.3817 10.9327 6.34694Z" fill="#131C6D"/>
<path id="Combined-Shape_2" fill-rule="evenodd" clip-rule="evenodd" d="M13.2337 7.5887C13.3579 7.5885 13.4915 7.58856 13.6357 7.58863L13.8734 7.5887C15.7774 7.5887 16.0031 7.59553 16.7549 7.6297C17.4502 7.66149 17.8276 7.77767 18.0789 7.87528C18.4117 8.00453 18.649 8.15904 18.8984 8.40863C19.148 8.65822 19.3025 8.89592 19.4321 9.2287C19.5297 9.47978 19.646 9.85713 19.6777 10.5524C19.7118 11.3042 19.7193 11.53 19.7193 13.4331C19.7193 15.3362 19.7118 15.562 19.6777 16.3138C19.6459 17.009 19.5297 17.3864 19.4321 17.6375C19.3028 17.9703 19.148 18.2072 18.8984 18.4567C18.6488 18.7063 18.4119 18.8608 18.0789 18.99C17.8279 19.0881 17.4502 19.2039 16.7549 19.2357C16.0032 19.2699 15.7774 19.2773 13.8734 19.2773C11.9692 19.2773 11.7435 19.2699 10.9918 19.2357C10.2965 19.2037 9.91917 19.0875 9.66765 18.9899C9.33486 18.8606 9.09716 18.7061 8.84757 18.4565C8.59798 18.2069 8.44347 17.9698 8.31393 17.6369C8.21632 17.3858 8.09999 17.0085 8.06835 16.3132C8.03418 15.5614 8.02734 15.3356 8.02734 13.4313C8.02734 11.527 8.03418 11.3024 8.06835 10.5506C8.10014 9.85535 8.21632 9.478 8.31393 9.22663C8.44318 8.89384 8.59798 8.65614 8.84757 8.40655C9.09716 8.15696 9.33486 8.00245 9.66765 7.8729C9.91902 7.77485 10.2965 7.65897 10.9918 7.62703C11.6497 7.59731 11.9046 7.5884 13.2337 7.58691V7.5887ZM17.6797 8.77273C17.2072 8.77273 16.8239 9.15558 16.8239 9.62817C16.8239 10.1006 17.2072 10.4839 17.6797 10.4839C18.1521 10.4839 18.5354 10.1006 18.5354 9.62817C18.5354 9.15573 18.1521 8.77243 17.6797 8.77243V8.77273ZM10.2111 13.4348C10.2111 11.4125 11.8508 9.77278 13.8731 9.7727C15.8955 9.7727 17.5348 11.4124 17.5348 13.4348C17.5348 15.4572 15.8957 17.0962 13.8733 17.0962C11.8508 17.0962 10.2111 15.4572 10.2111 13.4348Z" fill="#131C6D"/>
<path id="Shape" d="M13.8731 11.0581C15.1859 11.0581 16.2502 12.1223 16.2502 13.4351C16.2502 14.7479 15.1859 15.8122 13.8731 15.8122C12.5603 15.8122 11.4961 14.7479 11.4961 13.4351C11.4961 12.1223 12.5603 11.0581 13.8731 11.0581V11.0581Z" fill="#131C6D"/>
</g>
</svg>
