<svg width="21" height="21" viewBox="0 0 21 21" fill="none" xmlns="http://www.w3.org/2000/svg">
<g id="Instagram">
<path id="Combined-Shape" fill-rule="evenodd" clip-rule="evenodd" d="M10.7539 0.979492C5.23106 0.979492 0.753906 5.45664 0.753906 10.9795C0.753906 16.5023 5.23106 20.9795 10.7539 20.9795C16.2768 20.9795 20.7539 16.5023 20.7539 10.9795C20.7539 5.45664 16.2768 0.979492 10.7539 0.979492ZM8.55551 5.6782C9.12441 5.65231 9.30619 5.64598 10.7546 5.64598H10.753C12.2019 5.64598 12.383 5.65231 12.9519 5.6782C13.5197 5.7042 13.9075 5.79409 14.2475 5.92598C14.5986 6.0621 14.8952 6.24432 15.1919 6.54099C15.4886 6.83744 15.6708 7.135 15.8075 7.48578C15.9386 7.82489 16.0286 8.21245 16.0553 8.78024C16.0808 9.34913 16.0875 9.53091 16.0875 10.9794C16.0875 12.4278 16.0808 12.6092 16.0553 13.1781C16.0286 13.7456 15.9386 14.1333 15.8075 14.4725C15.6708 14.8232 15.4886 15.1207 15.1919 15.4172C14.8956 15.7139 14.5985 15.8965 14.2478 16.0328C13.9085 16.1646 13.5205 16.2545 12.9527 16.2805C12.3838 16.3064 12.2025 16.3128 10.754 16.3128C9.30563 16.3128 9.12396 16.3064 8.55507 16.2805C7.98739 16.2545 7.59972 16.1646 7.26039 16.0328C6.90983 15.8965 6.61227 15.7139 6.31593 15.4172C6.01937 15.1207 5.83715 14.8232 5.70081 14.4724C5.56904 14.1333 5.47915 13.7457 5.45303 13.1779C5.42726 12.6091 5.42081 12.4278 5.42081 10.9794C5.42081 9.53091 5.42748 9.34902 5.45292 8.78012C5.47848 8.21256 5.56848 7.82489 5.7007 7.48567C5.83737 7.135 6.0196 6.83744 6.31627 6.54099C6.61271 6.24443 6.91027 6.06221 7.26105 5.92598C7.60017 5.79409 7.98773 5.7042 8.55551 5.6782Z" fill="#F2F2F2" fill-opacity="0.9"/>
<path id="Combined-Shape_2" fill-rule="evenodd" clip-rule="evenodd" d="M10.2766 6.60729C10.3695 6.60715 10.4695 6.60719 10.5773 6.60724L10.7551 6.60729C12.1791 6.60729 12.3479 6.6124 12.9102 6.63796C13.4302 6.66174 13.7124 6.74863 13.9004 6.82163C14.1493 6.91829 14.3268 7.03385 14.5133 7.22052C14.7 7.40719 14.8156 7.58497 14.9125 7.83386C14.9855 8.02164 15.0725 8.30386 15.0961 8.82387C15.1217 9.3861 15.1272 9.55499 15.1272 10.9783C15.1272 12.4017 15.1217 12.5706 15.0961 13.1328C15.0723 13.6528 14.9855 13.935 14.9125 14.1228C14.8158 14.3717 14.7 14.5489 14.5133 14.7355C14.3267 14.9222 14.1494 15.0377 13.9004 15.1344C13.7127 15.2077 13.4302 15.2944 12.9102 15.3182C12.348 15.3437 12.1791 15.3493 10.7551 15.3493C9.33095 15.3493 9.16217 15.3437 8.59995 15.3182C8.07994 15.2942 7.79772 15.2073 7.6096 15.1343C7.36071 15.0376 7.18293 14.922 6.99626 14.7354C6.80959 14.5487 6.69404 14.3714 6.59715 14.1224C6.52415 13.9346 6.43715 13.6524 6.41348 13.1324C6.38792 12.5701 6.38281 12.4012 6.38281 10.977C6.38281 9.55277 6.38792 9.38476 6.41348 8.82254C6.43726 8.30253 6.52415 8.02031 6.59715 7.8323C6.69382 7.58341 6.80959 7.40563 6.99626 7.21896C7.18293 7.03229 7.36071 6.91674 7.6096 6.81985C7.7976 6.74651 8.07994 6.65985 8.59995 6.63596C9.09195 6.61373 9.28262 6.60707 10.2766 6.60596V6.60729ZM13.6012 7.49296C13.2479 7.49296 12.9612 7.7793 12.9612 8.13275C12.9612 8.48609 13.2479 8.77276 13.6012 8.77276C13.9545 8.77276 14.2412 8.48609 14.2412 8.13275C14.2412 7.77941 13.9545 7.49274 13.6012 7.49274V7.49296ZM8.01594 10.9796C8.01594 9.46708 9.24223 8.24076 10.7548 8.2407C12.2673 8.2407 13.4933 9.46704 13.4933 10.9796C13.4933 12.4922 12.2674 13.718 10.7549 13.718C9.24229 13.718 8.01594 12.4922 8.01594 10.9796Z" fill="#F2F2F2" fill-opacity="0.9"/>
<path id="Shape" d="M10.7544 9.20166C11.7361 9.20166 12.5322 9.99756 12.5322 10.9795C12.5322 11.9612 11.7361 12.7573 10.7544 12.7573C9.77246 12.7573 8.97656 11.9612 8.97656 10.9795C8.97656 9.99756 9.77246 9.20166 10.7544 9.20166V9.20166Z" fill="#F2F2F2" fill-opacity="0.9"/>
</g>
</svg>
