<svg width="26" height="26" viewBox="0 0 26 26" fill="none" xmlns="http://www.w3.org/2000/svg">
<path fill-rule="evenodd" clip-rule="evenodd" d="M12.6211 0.120117C5.71753 0.120117 0.121094 5.71656 0.121094 12.6201C0.121094 19.5237 5.71753 25.1201 12.6211 25.1201C19.5247 25.1201 25.1211 19.5237 25.1211 12.6201C25.1211 5.71656 19.5247 0.120117 12.6211 0.120117ZM9.87324 5.99374C10.5844 5.96137 10.8116 5.95346 12.6222 5.95346H12.6201C14.4312 5.95346 14.6576 5.96137 15.3687 5.99374C16.0784 6.02624 16.5632 6.1386 16.9882 6.30346C17.4271 6.4736 17.7979 6.70138 18.1687 7.07222C18.5396 7.44278 18.7674 7.81473 18.9382 8.2532C19.1021 8.6771 19.2146 9.16155 19.2479 9.87128C19.2799 10.5824 19.2882 10.8096 19.2882 12.6202C19.2882 14.4308 19.2799 14.6574 19.2479 15.3686C19.2146 16.078 19.1021 16.5626 18.9382 16.9866C18.7674 17.425 18.5396 17.7969 18.1687 18.1675C17.7983 18.5383 17.4269 18.7666 16.9886 18.9369C16.5644 19.1018 16.0794 19.2142 15.3697 19.2467C14.6586 19.279 14.432 19.2869 12.6213 19.2869C10.8109 19.2869 10.5838 19.279 9.87268 19.2467C9.16309 19.2142 8.6785 19.1018 8.25433 18.9369C7.81613 18.7666 7.44418 18.5383 7.07376 18.1675C6.70306 17.7969 6.47528 17.425 6.30487 16.9865C6.14014 16.5626 6.02778 16.0781 5.99514 15.3684C5.96292 14.6573 5.95486 14.4308 5.95486 12.6202C5.95486 10.8096 5.9632 10.5823 5.995 9.87114C6.02695 9.16169 6.13945 8.6771 6.30473 8.25307C6.47556 7.81473 6.70334 7.44278 7.07418 7.07222C7.44474 6.70152 7.81669 6.47374 8.25516 6.30346C8.67906 6.1386 9.16351 6.02624 9.87324 5.99374Z" fill="#322B6C"/>
<path fill-rule="evenodd" clip-rule="evenodd" d="M12.0235 7.15499C12.1396 7.15481 12.2646 7.15486 12.3994 7.15492L12.6216 7.15499C14.4016 7.15499 14.6126 7.16138 15.3155 7.19332C15.9655 7.22304 16.3183 7.33166 16.5533 7.42291C16.8644 7.54374 17.0862 7.68819 17.3194 7.92152C17.5527 8.15486 17.6972 8.37708 17.8183 8.6882C17.9096 8.92292 18.0183 9.2757 18.0479 9.92571C18.0798 10.6285 18.0868 10.8396 18.0868 12.6188C18.0868 14.398 18.0798 14.6091 18.0479 15.3119C18.0182 15.9619 17.9096 16.3147 17.8183 16.5494C17.6975 16.8605 17.5527 17.082 17.3194 17.3152C17.0861 17.5486 16.8645 17.693 16.5533 17.8139C16.3186 17.9055 15.9655 18.0139 15.3155 18.0436C14.6127 18.0755 14.4016 18.0825 12.6216 18.0825C10.8414 18.0825 10.6305 18.0755 9.92767 18.0436C9.27766 18.0136 8.92488 17.905 8.68974 17.8137C8.37862 17.6929 8.1564 17.5484 7.92306 17.3151C7.68973 17.0818 7.54528 16.8601 7.42417 16.5488C7.33292 16.3141 7.22417 15.9613 7.19458 15.3113C7.16264 14.6085 7.15625 14.3974 7.15625 12.6171C7.15625 10.8368 7.16264 10.6268 7.19458 9.92404C7.22431 9.27404 7.33292 8.92126 7.42417 8.68625C7.545 8.37514 7.68973 8.15291 7.92306 7.91958C8.1564 7.68624 8.37862 7.5418 8.68974 7.42068C8.92474 7.32902 9.27766 7.22068 9.92767 7.19082C10.5427 7.16304 10.781 7.15471 12.0235 7.15332V7.15499ZM16.1804 8.26192C15.7388 8.26192 15.3804 8.61984 15.3804 9.06165C15.3804 9.50332 15.7388 9.86166 16.1804 9.86166C16.6221 9.86166 16.9805 9.50332 16.9805 9.06165C16.9805 8.61998 16.6221 8.26164 16.1804 8.26164V8.26192ZM9.19844 12.6203C9.19844 10.7296 10.7313 9.19675 12.6219 9.19667C14.5127 9.19667 16.0452 10.7296 16.0452 12.6203C16.0452 14.511 14.5128 16.0433 12.6221 16.0433C10.7314 16.0433 9.19844 14.511 9.19844 12.6203Z" fill="#322B6C"/>
<path d="M12.6207 10.3984C13.8479 10.3984 14.8429 11.3933 14.8429 12.6207C14.8429 13.8479 13.8479 14.8429 12.6207 14.8429C11.3933 14.8429 10.3984 13.8479 10.3984 12.6207C10.3984 11.3933 11.3933 10.3984 12.6207 10.3984Z" fill="#322B6C"/>
</svg>
