<svg width="28" height="27" viewBox="0 0 28 27" fill="none" xmlns="http://www.w3.org/2000/svg">
<g id="Instagram">
<path id="Combined-Shape" fill-rule="evenodd" clip-rule="evenodd" d="M13.8316 0.0639648C6.4472 0.0639648 0.460938 6.05023 0.460938 13.4347C0.460938 20.8191 6.4472 26.8054 13.8316 26.8054C21.2161 26.8054 27.2023 20.8191 27.2023 13.4347C27.2023 6.05023 21.2161 0.0639648 13.8316 0.0639648ZM10.8917 6.34694C11.6523 6.31232 11.8954 6.30385 13.8321 6.30385H13.8299C15.7671 6.30385 16.0093 6.31232 16.77 6.34694C17.5291 6.3817 18.0476 6.50189 18.5022 6.67824C18.9717 6.86023 19.3684 7.10388 19.765 7.50054C20.1617 7.89691 20.4053 8.29477 20.5881 8.76379C20.7634 9.21721 20.8837 9.7354 20.9194 10.4946C20.9535 11.2552 20.9625 11.4983 20.9625 13.435C20.9625 15.3717 20.9535 15.6141 20.9194 16.3748C20.8837 17.1336 20.7634 17.652 20.5881 18.1056C20.4053 18.5744 20.1617 18.9723 19.765 19.3687C19.3688 19.7653 18.9715 20.0096 18.5027 20.1917C18.049 20.368 17.5302 20.4882 16.771 20.523C16.0103 20.5576 15.768 20.5661 13.8312 20.5661C11.8947 20.5661 11.6517 20.5576 10.8911 20.523C10.1321 20.4882 9.61374 20.368 9.16002 20.1917C8.6913 20.0096 8.29344 19.7653 7.89722 19.3687C7.5007 18.9723 7.25705 18.5744 7.07476 18.1054C6.89856 17.652 6.77837 17.1338 6.74346 16.3746C6.70899 15.614 6.70038 15.3717 6.70038 13.435C6.70038 11.4983 6.70929 11.2551 6.74331 10.4944C6.77748 9.73555 6.89782 9.21721 7.07461 8.76364C7.25735 8.29477 7.50099 7.89691 7.89766 7.50054C8.29403 7.10402 8.69189 6.86038 9.16091 6.67824C9.61433 6.50189 10.1325 6.3817 10.8917 6.34694Z" fill="#322B6C"/>
<path id="Combined-Shape_2" fill-rule="evenodd" clip-rule="evenodd" d="M13.1926 7.5887C13.3169 7.5885 13.4505 7.58856 13.5947 7.58863L13.8324 7.5887C15.7364 7.5887 15.962 7.59553 16.7139 7.6297C17.4092 7.66149 17.7866 7.77767 18.0379 7.87528C18.3707 8.00453 18.608 8.15904 18.8574 8.40863C19.107 8.65822 19.2615 8.89592 19.3911 9.2287C19.4887 9.47978 19.605 9.85713 19.6366 10.5524C19.6708 11.3042 19.6782 11.53 19.6782 13.4331C19.6782 15.3362 19.6708 15.562 19.6366 16.3138C19.6048 17.009 19.4887 17.3864 19.3911 17.6375C19.2618 17.9703 19.107 18.2072 18.8574 18.4567C18.6078 18.7063 18.3709 18.8608 18.0379 18.99C17.7869 19.0881 17.4092 19.2039 16.7139 19.2357C15.9622 19.2699 15.7364 19.2773 13.8324 19.2773C11.9282 19.2773 11.7025 19.2699 10.9508 19.2357C10.2555 19.2037 9.87815 19.0875 9.62663 18.9899C9.29385 18.8606 9.05614 18.7061 8.80655 18.4565C8.55697 18.2069 8.40246 17.9698 8.27291 17.6369C8.1753 17.3858 8.05898 17.0085 8.02733 16.3132C7.99316 15.5614 7.98633 15.3356 7.98633 13.4313C7.98633 11.527 7.99316 11.3024 8.02733 10.5506C8.05912 9.85535 8.1753 9.478 8.27291 9.22663C8.40216 8.89384 8.55697 8.65614 8.80655 8.40655C9.05614 8.15696 9.29385 8.00245 9.62663 7.8729C9.87801 7.77485 10.2555 7.65897 10.9508 7.62703C11.6086 7.59731 11.8636 7.5884 13.1926 7.58691V7.5887ZM17.6387 8.77273C17.1662 8.77273 16.7829 9.15558 16.7829 9.62817C16.7829 10.1006 17.1662 10.4839 17.6387 10.4839C18.1111 10.4839 18.4944 10.1006 18.4944 9.62817C18.4944 9.15573 18.1111 8.77243 17.6387 8.77243V8.77273ZM10.1701 13.4348C10.1701 11.4125 11.8098 9.77278 13.8321 9.7727C15.8545 9.7727 17.4938 11.4124 17.4938 13.4348C17.4938 15.4572 15.8547 17.0962 13.8322 17.0962C11.8098 17.0962 10.1701 15.4572 10.1701 13.4348Z" fill="#322B6C"/>
<path id="Shape" d="M13.8321 11.0581C15.1448 11.0581 16.2092 12.1223 16.2092 13.4351C16.2092 14.7479 15.1448 15.8122 13.8321 15.8122C12.5192 15.8122 11.4551 14.7479 11.4551 13.4351C11.4551 12.1223 12.5192 11.0581 13.8321 11.0581V11.0581Z" fill="#322B6C"/>
</g>
</svg>
