<svg width="38" height="40" viewBox="0 0 38 40" fill="none" xmlns="http://www.w3.org/2000/svg">
<path d="M16.9473 8.78369H20.3183V38.5107H16.9473V8.78369Z" fill="#322B6C" stroke="white" stroke-miterlimit="3"/>
<path fill-rule="evenodd" clip-rule="evenodd" d="M20.5879 4.11386L28.5749 1.36816L36.4798 4.16791L28.5984 12.4374L20.6349 15.2372L20.6114 9.68091L20.5879 4.11386Z" fill="#322B6C"/>
<path d="M20.5879 4.11386L28.5749 1.36816L36.4798 4.16791L28.5984 12.4374L20.6349 15.2372L20.6114 9.68091L20.5879 4.11386Z" fill="#322B6C" stroke="white" stroke-miterlimit="3"/>
<path fill-rule="evenodd" clip-rule="evenodd" d="M17.3469 4.11386L9.3599 1.36816L1.45508 4.16791L9.33641 12.4374L17.3 15.2372L17.3235 9.68091L17.3469 4.11386Z" fill="#322B6C"/>
<path d="M16.8919 3.79276L8.90482 1.36865L1 4.16839L8.88133 12.4379L16.8449 15.2376L16.8684 9.6814L16.8919 4.11434V3.79276Z" fill="#322B6C" stroke="white" stroke-miterlimit="3"/>
<path fill-rule="evenodd" clip-rule="evenodd" d="M20.2949 17.4641L28.282 20.2206L36.1868 17.4101L28.3055 9.14056L20.3419 6.34082L20.3184 11.8971L20.2949 17.4641Z" fill="#322B6C"/>
<path d="M20.5215 17.4641L28.5085 20.2206L36.4134 17.4101L28.532 9.14056L20.5685 6.34082L20.545 11.8971L20.5215 17.4641Z" fill="#322B6C" stroke="white" stroke-miterlimit="3"/>
<path fill-rule="evenodd" clip-rule="evenodd" d="M17.0707 17.4335L9.15089 20.2206L1.25781 17.4208L9.13914 9.1513L17.0909 6.35156L17.1144 11.897L17.1379 17.4749L17.0707 17.4335Z" fill="#322B6C"/>
<path d="M16.9094 17.4749L8.92238 20.2206L1.0293 17.4208L8.91063 9.1513L16.8624 6.35156L16.8859 11.897L16.9094 17.4749Z" fill="#322B6C" stroke="white" stroke-miterlimit="3"/>
</svg>
