<svg width="328" height="328" viewBox="0 0 328 328" fill="none" xmlns="http://www.w3.org/2000/svg">
<g id="Group">
<g id="Group_2">
<path id="Vector" d="M164 327.242C254.156 327.242 327.242 254.156 327.242 164C327.242 73.8438 254.156 0.757812 164 0.757812C73.8438 0.757812 0.757812 73.8438 0.757812 164C0.757812 254.156 73.8438 327.242 164 327.242Z" fill="#473080"/>
<path id="Vector_2" d="M164.001 305.229C241.999 305.229 305.23 241.999 305.23 164C305.23 86.0014 241.999 22.771 164.001 22.771C86.0019 22.771 22.7715 86.0014 22.7715 164C22.7715 241.999 86.0019 305.229 164.001 305.229Z" fill="#473080"/>
</g>
<g id="Group_3">
<path id="Vector_3" d="M260.559 235.21C260.559 234.889 260.52 234.578 260.464 234.275C260.442 234.145 260.414 234.019 260.382 233.893C260.347 233.754 260.302 233.618 260.255 233.484C260.135 233.124 259.983 232.78 259.794 232.456C259.794 232.455 259.793 232.455 259.793 232.454C258.839 230.813 257.08 229.697 255.046 229.697H248.578V206.693C248.578 206.044 248.052 205.516 247.401 205.516H227.042V202.453V197.37C227.042 196.233 226.235 195.284 225.163 195.065C225.01 195.034 224.852 195.017 224.689 195.017H203.689C191.713 174.392 169.401 160.512 143.834 160.512C109.751 160.512 81.4447 185.165 75.7244 217.606C75.533 218.69 75.3676 219.784 75.2281 220.884C75.2281 220.889 75.2268 220.894 75.2268 220.898C74.8604 223.782 74.6512 226.713 74.6512 229.695H72.9559C70.9215 229.695 69.1633 230.81 68.209 232.451C68.209 232.452 68.209 232.452 68.2076 232.454C68.0189 232.778 67.8672 233.119 67.7469 233.482C67.7004 233.617 67.6553 233.751 67.6197 233.891C67.5883 234.016 67.5596 234.142 67.5377 234.272C67.4816 234.577 67.4434 234.886 67.4434 235.207C67.4434 238.25 69.9111 240.718 72.9545 240.718H255.047C258.091 240.722 260.559 238.255 260.559 235.21Z" fill="#382B73"/>
<path id="Vector_4" d="M188.082 140.672C188.8 148.901 193.902 156.48 202.026 159.964C210.148 163.448 219.157 161.922 225.614 156.769C233.932 158.639 241.528 158.87 244.19 154.956C244.924 154.23 244.864 153.66 244.69 154.063C246.69 149.398 241.491 143.867 234.313 138.929C234.408 129.859 229.14 121.193 220.283 117.394C211.427 113.596 201.519 115.752 195.012 122.071C186.488 120.275 178.896 120.32 176.894 124.985C177.068 124.581 176.613 124.93 176.592 125.963C175.593 130.59 180.994 135.934 188.082 140.672ZM186.765 126.854C186.876 126.858 186.987 126.862 187.103 126.867C187.255 126.875 187.415 126.885 187.576 126.896C187.695 126.904 187.811 126.911 187.934 126.921C188.105 126.934 188.286 126.952 188.465 126.968C188.59 126.981 188.712 126.992 188.842 127.005C189.033 127.026 189.234 127.05 189.435 127.075C189.567 127.091 189.694 127.105 189.831 127.123C190.055 127.153 190.293 127.187 190.529 127.223C190.652 127.24 190.767 127.255 190.893 127.276C190.926 127.281 190.961 127.288 190.994 127.292C190.585 128.017 190.206 128.768 189.872 129.55C189.274 130.941 188.835 132.362 188.525 133.788C184.017 130.375 182.617 128.135 182.383 127.337C182.424 127.316 182.475 127.294 182.528 127.272C182.56 127.26 182.595 127.246 182.631 127.234C182.679 127.216 182.724 127.199 182.779 127.182C182.811 127.172 182.85 127.161 182.885 127.152C182.943 127.135 182.999 127.119 183.062 127.104C183.103 127.094 183.15 127.085 183.196 127.074C183.261 127.059 183.328 127.044 183.401 127.03C183.451 127.02 183.509 127.011 183.563 127.001C183.64 126.989 183.718 126.975 183.801 126.963C183.863 126.955 183.928 126.946 183.993 126.938C184.079 126.927 184.166 126.918 184.259 126.908C184.332 126.901 184.41 126.895 184.486 126.888C184.582 126.879 184.68 126.873 184.783 126.866C184.865 126.86 184.951 126.856 185.039 126.852C185.148 126.847 185.259 126.843 185.375 126.84C185.466 126.837 185.561 126.836 185.658 126.834C185.78 126.833 185.907 126.833 186.035 126.834C186.136 126.836 186.239 126.836 186.344 126.838C186.48 126.843 186.622 126.848 186.765 126.854ZM233.668 145.725C233.858 145.874 234.049 146.023 234.227 146.166C234.334 146.253 234.432 146.336 234.535 146.421C234.688 146.548 234.844 146.675 234.987 146.797C235.093 146.886 235.19 146.972 235.29 147.059C235.419 147.173 235.551 147.286 235.674 147.396C235.769 147.482 235.86 147.565 235.951 147.65C236.067 147.755 236.181 147.862 236.289 147.964C236.374 148.045 236.453 148.121 236.532 148.199C236.636 148.301 236.737 148.4 236.833 148.496C236.907 148.57 236.978 148.644 237.048 148.716C237.138 148.809 237.225 148.901 237.309 148.991C237.374 149.062 237.439 149.132 237.502 149.202C237.578 149.286 237.652 149.368 237.722 149.45C237.779 149.517 237.837 149.583 237.89 149.647C237.956 149.727 238.018 149.803 238.079 149.878C238.126 149.938 238.174 149.997 238.219 150.055C238.275 150.127 238.327 150.197 238.379 150.267C238.419 150.32 238.46 150.375 238.497 150.427C238.545 150.494 238.587 150.556 238.63 150.621C238.661 150.667 238.695 150.716 238.724 150.762C238.762 150.822 238.796 150.878 238.831 150.935C238.855 150.978 238.882 151.02 238.906 151.06C238.936 151.113 238.96 151.161 238.986 151.21C239.006 151.245 239.027 151.284 239.044 151.318C239.068 151.367 239.086 151.41 239.105 151.455C239.122 151.493 239.14 151.531 239.152 151.567C239.171 151.619 239.19 151.668 239.202 151.712C238.463 152.092 235.875 152.621 230.295 151.708C231.115 150.499 231.841 149.203 232.439 147.811C232.774 147.029 233.057 146.237 233.3 145.442C233.326 145.462 233.356 145.483 233.382 145.503C233.482 145.577 233.571 145.65 233.668 145.725Z" fill="#382B73"/>
<path id="Vector_5" d="M147.126 115.514C153.242 115.514 158.201 110.555 158.201 104.438C158.201 103.894 158.149 103.364 158.073 102.84C158.059 102.747 158.047 102.654 158.03 102.561C157.94 102.035 157.82 101.519 157.658 101.02C156.217 96.5784 152.049 93.3628 147.127 93.3628C142.205 93.3628 138.037 96.5771 136.596 101.02C136.434 101.518 136.314 102.034 136.224 102.56C136.207 102.653 136.195 102.746 136.181 102.84C136.106 103.362 136.053 103.894 136.053 104.438C136.05 110.555 141.009 115.514 147.126 115.514Z" fill="#382B73"/>
<path id="Vector_6" d="M89.7936 135.892C89.7293 136.332 89.6855 136.778 89.6855 137.234C89.6855 138.197 89.8318 139.125 90.1039 139.999C90.2844 140.581 90.5223 141.139 90.808 141.667C91.0582 142.128 91.3521 142.56 91.6748 142.968C91.7377 143.049 91.7992 143.131 91.8648 143.209C92.7426 144.254 93.8486 145.097 95.1023 145.674C95.265 145.749 95.4291 145.819 95.5959 145.885C96.6473 146.298 97.7889 146.531 98.9865 146.531C102.518 146.531 105.589 144.564 107.164 141.664C107.88 140.346 108.286 138.837 108.286 137.232C108.286 136.775 108.242 136.328 108.178 135.889C108.167 135.811 108.156 135.733 108.143 135.655C108.067 135.214 107.966 134.78 107.829 134.362C106.62 130.631 103.12 127.932 98.9865 127.932C94.8535 127.932 91.3535 130.631 90.1436 134.362C90.0082 134.78 89.907 135.214 89.8305 135.655C89.8154 135.736 89.8045 135.813 89.7936 135.892Z" fill="#382B73"/>
</g>
<g id="Group_4">
<g id="Group_5">
<g id="Group_6">
<path id="Vector_7" d="M74.6504 220.128C74.6504 181.918 105.625 150.943 143.836 150.943C182.044 150.943 213.021 181.918 213.021 220.128H74.6504Z" fill="#BCBEC0"/>
<path id="Vector_8" d="M98.9844 220.128C98.9844 181.918 119.064 150.943 143.835 150.943C168.606 150.943 188.686 181.918 188.686 220.128H98.9844Z" fill="#D1D3D4"/>
<path id="Vector_9" d="M128.09 220.128C128.09 181.918 135.139 150.943 143.836 150.943C152.531 150.943 159.582 181.918 159.582 220.128H128.09Z" fill="#E6E7E8"/>
</g>
<path id="Vector_10" d="M74.8848 214.66H198.01V208.039H75.7256C75.3414 210.212 75.0611 212.422 74.8848 214.66Z" fill="#009ADD"/>
<path id="Vector_11" d="M99.1367 214.66H188.533C188.42 212.42 188.238 210.212 187.989 208.039H99.6809C99.4334 210.212 99.2502 212.422 99.1367 214.66Z" fill="#1CAEE4"/>
<path id="Vector_12" d="M128.143 214.66H159.526C159.487 212.42 159.422 210.212 159.335 208.039H128.333C128.246 210.212 128.184 212.422 128.143 214.66Z" fill="#27C1E6"/>
</g>
<g id="Group_7">
<path id="Vector_13" d="M255.047 220.128H72.9545C69.9111 220.128 67.4434 222.596 67.4434 225.64C67.4434 228.683 69.9111 231.151 72.9545 231.151H255.046C258.089 231.151 260.557 228.683 260.557 225.64C260.559 222.596 258.091 220.128 255.047 220.128Z" fill="#FFD042"/>
<path id="Vector_14" d="M255.047 225.64H72.9545C70.9201 225.64 69.1619 224.524 68.2076 222.883C67.7346 223.697 67.4434 224.631 67.4434 225.64C67.4434 228.684 69.9111 231.151 72.9545 231.151H255.047C258.091 231.151 260.559 228.683 260.559 225.64C260.559 224.631 260.267 223.697 259.794 222.883C258.84 224.525 257.082 225.64 255.047 225.64Z" fill="#DBB246"/>
</g>
<g id="Group_8">
<g id="Group_9">
<g id="Group_10">
<path id="Vector_15" d="M224.69 185.449H200.47C199.17 185.449 198.117 186.503 198.117 187.802V217.775C198.117 219.075 199.171 220.128 200.47 220.128H224.69C225.99 220.128 227.043 219.074 227.043 217.775V187.802C227.043 186.502 225.99 185.449 224.69 185.449Z" fill="white"/>
<path id="Vector_16" d="M224.69 215.047H200.47C199.17 215.047 198.117 213.993 198.117 212.694V220.13H227.043V212.694C227.043 213.993 225.99 215.047 224.69 215.047Z" fill="#E6E7E8"/>
<path id="Vector_17" d="M200.47 190.531H224.69C225.99 190.531 227.043 191.586 227.043 192.884V187.801C227.043 186.501 225.989 185.448 224.69 185.448H200.47C199.17 185.448 198.117 186.502 198.117 187.801V192.884C198.117 191.586 199.171 190.531 200.47 190.531Z" fill="#E6E7E8"/>
<g id="Group_11">
<path id="Vector_18" d="M211.023 194.51H200.556C200.069 194.51 199.674 194.115 199.674 193.628C199.674 193.141 200.069 192.746 200.556 192.746H211.023C211.511 192.746 211.906 193.141 211.906 193.628C211.906 194.115 211.511 194.51 211.023 194.51Z" fill="#E6E7E8"/>
<path id="Vector_19" d="M211.023 197.627H200.556C200.069 197.627 199.674 197.232 199.674 196.745C199.674 196.257 200.069 195.863 200.556 195.863H211.023C211.511 195.863 211.906 196.258 211.906 196.745C211.906 197.232 211.511 197.627 211.023 197.627Z" fill="#E6E7E8"/>
<path id="Vector_20" d="M211.023 200.745H200.556C200.069 200.745 199.674 200.35 199.674 199.864C199.674 199.376 200.069 198.98 200.556 198.98H211.023C211.511 198.98 211.906 199.376 211.906 199.864C211.906 200.35 211.511 200.745 211.023 200.745Z" fill="#E6E7E8"/>
<path id="Vector_21" d="M211.023 203.864H200.556C200.069 203.864 199.674 203.469 199.674 202.982C199.674 202.494 200.069 202.099 200.556 202.099H211.023C211.511 202.099 211.906 202.494 211.906 202.982C211.906 203.469 211.511 203.864 211.023 203.864Z" fill="#E6E7E8"/>
<path id="Vector_22" d="M211.023 206.981H200.556C200.069 206.981 199.674 206.586 199.674 206.098C199.674 205.611 200.069 205.216 200.556 205.216H211.023C211.511 205.216 211.906 205.611 211.906 206.098C211.906 206.586 211.511 206.981 211.023 206.981Z" fill="#E6E7E8"/>
<path id="Vector_23" d="M211.023 210.1H200.556C200.069 210.1 199.674 209.704 199.674 209.216C199.674 208.73 200.069 208.334 200.556 208.334H211.023C211.511 208.334 211.906 208.73 211.906 209.216C211.906 209.704 211.511 210.1 211.023 210.1Z" fill="#E6E7E8"/>
<path id="Vector_24" d="M211.023 213.219H200.556C200.069 213.219 199.674 212.824 199.674 212.335C199.674 211.849 200.069 211.454 200.556 211.454H211.023C211.511 211.454 211.906 211.849 211.906 212.335C211.906 212.824 211.511 213.219 211.023 213.219Z" fill="#E6E7E8"/>
</g>
<g id="Group_12">
<path id="Vector_25" d="M224.556 194.51H214.089C213.602 194.51 213.207 194.115 213.207 193.628C213.207 193.141 213.602 192.746 214.089 192.746H224.556C225.044 192.746 225.439 193.141 225.439 193.628C225.438 194.115 225.043 194.51 224.556 194.51Z" fill="#E6E7E8"/>
<path id="Vector_26" d="M224.556 197.627H214.089C213.602 197.627 213.207 197.232 213.207 196.745C213.207 196.257 213.602 195.863 214.089 195.863H224.556C225.044 195.863 225.439 196.258 225.439 196.745C225.438 197.232 225.043 197.627 224.556 197.627Z" fill="#E6E7E8"/>
<path id="Vector_27" d="M224.556 200.745H214.089C213.602 200.745 213.207 200.35 213.207 199.864C213.207 199.376 213.602 198.98 214.089 198.98H224.556C225.044 198.98 225.439 199.376 225.439 199.864C225.438 200.35 225.043 200.745 224.556 200.745Z" fill="#E6E7E8"/>
<path id="Vector_28" d="M224.556 203.864H214.089C213.602 203.864 213.207 203.469 213.207 202.982C213.207 202.494 213.602 202.099 214.089 202.099H224.556C225.044 202.099 225.439 202.494 225.439 202.982C225.438 203.469 225.043 203.864 224.556 203.864Z" fill="#E6E7E8"/>
<path id="Vector_29" d="M224.556 206.981H214.089C213.602 206.981 213.207 206.586 213.207 206.098C213.207 205.611 213.602 205.216 214.089 205.216H224.556C225.044 205.216 225.439 205.611 225.439 206.098C225.438 206.586 225.043 206.981 224.556 206.981Z" fill="#E6E7E8"/>
<path id="Vector_30" d="M224.556 210.1H214.089C213.602 210.1 213.207 209.704 213.207 209.216C213.207 208.73 213.602 208.334 214.089 208.334H224.556C225.044 208.334 225.439 208.73 225.439 209.216C225.438 209.704 225.043 210.1 224.556 210.1Z" fill="#E6E7E8"/>
<path id="Vector_31" d="M224.556 213.219H214.089C213.602 213.219 213.207 212.824 213.207 212.335C213.207 211.849 213.602 211.454 214.089 211.454H224.556C225.044 211.454 225.439 211.849 225.439 212.335C225.438 212.824 225.043 213.219 224.556 213.219Z" fill="#E6E7E8"/>
</g>
</g>
<path id="Vector_32" d="M248.579 220.128H227.045V195.948H247.404C248.053 195.948 248.581 196.475 248.581 197.125V220.128H248.579Z" fill="#D1D3D4"/>
</g>
<g id="Group_13">
<path id="Vector_33" d="M242.801 202.05H232.82C231.539 202.05 230.5 203.089 230.5 204.37V220.129H245.121V204.37C245.121 203.089 244.082 202.05 242.801 202.05Z" fill="#009ADD"/>
<path id="Vector_34" d="M242.114 219.065H233.448C232.807 219.065 232.289 218.545 232.289 217.906V205.542C232.289 204.901 232.809 204.381 233.448 204.381H242.114C242.755 204.381 243.274 204.901 243.274 205.542V217.906C243.274 218.545 242.755 219.065 242.114 219.065Z" fill="#BCBEC0"/>
<path id="Vector_35" d="M242.114 218.485H233.448C232.807 218.485 232.289 217.966 232.289 217.325V204.961C232.289 204.32 232.809 203.802 233.448 203.802H242.114C242.755 203.802 243.274 204.321 243.274 204.961V217.325C243.274 217.966 242.755 218.485 242.114 218.485Z" fill="#D1D3D4"/>
<path id="Vector_36" d="M241.173 217.289H234.393C233.872 217.289 233.451 216.867 233.451 216.347V205.941C233.451 205.421 233.874 204.998 234.393 204.998H241.173C241.694 204.998 242.115 205.421 242.115 205.941V216.347C242.115 216.867 241.694 217.289 241.173 217.289Z" fill="white"/>
<path id="Vector_37" d="M235.731 211.09C235.731 211.519 235.384 211.867 234.954 211.867C234.525 211.867 234.178 211.519 234.178 211.09C234.178 210.662 234.525 210.313 234.954 210.313C235.384 210.313 235.731 210.661 235.731 211.09Z" fill="#BCBEC0"/>
</g>
</g>
<g id="Group_14">
<g id="Group_15">
<path id="Vector_38" d="M178.439 119.277C179.892 119.9 181.571 119.26 182.249 117.848C182.783 117.457 185.506 116.729 192.037 117.896C198.121 118.983 205.601 121.352 213.101 124.57C220.602 127.787 227.475 131.574 232.455 135.233C237.802 139.161 239.153 141.637 239.237 142.292C238.68 143.756 239.375 145.413 240.828 146.036C242.321 146.676 244.05 145.986 244.69 144.493C248.343 135.977 228.011 124.565 215.42 119.164C202.83 113.764 180.547 106.897 176.896 115.414C176.254 116.907 176.946 118.637 178.439 119.277Z" fill="#1CAEE4"/>
</g>
<path id="Vector_39" d="M214.26 121.867C239.092 132.519 239.201 142.14 239.201 142.14C238.956 141.306 237.451 138.905 232.454 135.233C227.473 131.574 220.601 127.787 213.1 124.57C205.6 121.353 198.119 118.982 192.036 117.895C185.931 116.806 183.153 117.369 182.381 117.767C182.381 117.767 189.427 111.217 214.26 121.867Z" fill="#009ADD"/>
<path id="Vector_40" d="M231.292 140.557C237.61 129.435 233.715 115.298 222.593 108.98C211.472 102.663 197.334 106.557 191.017 117.679C184.699 128.801 188.594 142.938 199.716 149.256C210.838 155.573 224.975 151.679 231.292 140.557Z" fill="#FFD042"/>
<path id="Vector_41" d="M232.436 138.244C236.072 129.767 229.491 118.807 217.736 113.765C205.981 108.723 193.504 111.507 189.867 119.985C186.231 128.463 192.812 139.422 204.567 144.465C216.322 149.507 228.799 146.722 232.436 138.244Z" fill="#FEDE3A"/>
<path id="Vector_42" d="M208.279 135.811C220.034 140.853 230.851 141.94 232.438 138.238C234.026 134.536 225.784 127.448 214.029 122.406C202.274 117.364 191.457 116.277 189.87 119.979C188.282 123.681 196.524 130.769 208.279 135.811Z" fill="#FFF335"/>
<g id="Group_16">
<path id="Vector_43" d="M206.163 140.743C218.754 146.143 241.036 153.01 244.688 144.493C245.328 143 244.637 141.27 243.144 140.631C241.691 140.007 240.012 140.646 239.334 142.059C238.801 142.45 236.077 143.178 229.546 142.01C223.462 140.923 215.982 138.554 208.482 135.337C200.982 132.12 194.109 128.333 189.128 124.674C183.781 120.746 182.43 118.27 182.347 117.615C182.903 116.151 182.209 114.494 180.755 113.871C179.262 113.231 177.533 113.921 176.893 115.414C173.241 123.93 193.574 135.342 206.163 140.743Z" fill="#1CAEE4"/>
</g>
<path id="Vector_44" d="M207.033 138.715C244.535 154.8 245.329 143 244.688 144.493C241.035 153.009 218.753 146.142 206.164 140.743C193.573 135.342 173.24 123.93 176.893 115.414C177.535 113.921 169.532 122.63 207.033 138.715Z" fill="#009ADD"/>
</g>
<g id="Group_17">
<g id="Group_18">
<g id="Group_19">
<g id="Group_20">
<path id="Vector_45" d="M147.126 105.944C153.243 105.944 158.202 100.985 158.202 94.8681C158.202 88.7512 153.243 83.7925 147.126 83.7925C141.009 83.7925 136.051 88.7512 136.051 94.8681C136.051 100.985 141.009 105.944 147.126 105.944Z" fill="#1CAEE4"/>
</g>
</g>
<g id="Group_21">
<path id="Vector_46" d="M147.127 99.1078C142.204 99.1078 138.037 95.8936 136.596 91.4502C136.247 92.5275 136.053 93.6746 136.053 94.8682C136.053 100.985 141.012 105.944 147.128 105.944C153.245 105.944 158.204 100.985 158.204 94.8682C158.204 93.6746 158.01 92.5275 157.661 91.4502C156.217 95.8922 152.05 99.1078 147.127 99.1078Z" fill="#009ADD"/>
</g>
</g>
</g>
<g id="Group_22">
<g id="Group_23">
<g id="Group_24">
<path id="Vector_47" d="M98.9852 136.964C104.121 136.964 108.285 132.8 108.285 127.664C108.285 122.528 104.121 118.365 98.9852 118.365C93.8491 118.365 89.6855 122.528 89.6855 127.664C89.6855 132.8 93.8491 136.964 98.9852 136.964Z" fill="#FEDE3A"/>
</g>
</g>
<g id="Group_25">
<path id="Vector_48" d="M98.9852 131.223C94.8508 131.223 91.3521 128.524 90.1422 124.793C89.8482 125.697 89.6855 126.661 89.6855 127.663C89.6855 132.799 93.8486 136.962 98.9852 136.962C104.12 136.962 108.285 132.799 108.285 127.663C108.285 126.661 108.122 125.697 107.828 124.793C106.618 128.524 103.118 131.223 98.9852 131.223Z" fill="#FFD042"/>
</g>
</g>
</g>
</g>
</svg>
