<svg width="150" height="40" viewBox="0 0 150 40" fill="none" xmlns="http://www.w3.org/2000/svg">
<g id="Go home">
<rect id="Rectangle 2.1" width="150" height="40" rx="2" fill="#322B6C"/>
<g id="Group 28">
<path id="READ MORE" d="M33.2077 24H34.9977L33.5077 21.69C34.3577 21.29 34.8177 20.51 34.8177 19.43C34.8177 17.88 33.7777 17 31.9477 17H28.9077V24H30.4877V22H31.9477H32.0977L33.2077 24ZM30.4877 20.68V18.31H31.9477C32.8177 18.31 33.3177 18.7 33.3177 19.48C33.3177 20.28 32.8177 20.68 31.9477 20.68H30.4877ZM41.474 18.31V17H36.144V24H41.584V22.69H37.724V21.14H41.104V19.83H37.724V18.31H41.474ZM47.4437 22.64L47.9937 24H49.6837L46.6937 17H45.0637L42.0237 24H43.6537L44.2037 22.64H47.4437ZM46.9337 21.37H44.7237L45.8337 18.65L46.9337 21.37ZM50.4116 17V24H53.3216C55.5316 24 57.0616 22.56 57.0616 20.5C57.0616 18.43 55.5516 17 53.3816 17H50.4116ZM51.9916 18.33H53.3516C54.5516 18.33 55.4516 19.22 55.4516 20.51C55.4516 21.79 54.5916 22.67 53.4216 22.67H51.9916V18.33ZM68.1093 24V17H66.3493L64.3193 21.28L62.2793 17H60.5093V24H61.9393V19.28L63.7993 23.29H64.8293L66.6893 19.28V24H68.1093ZM72.9196 16.95C70.7796 16.95 69.1596 18.46 69.1596 20.5C69.1596 22.53 70.7796 24.07 72.9196 24.07C75.0596 24.07 76.6796 22.52 76.6796 20.5C76.6796 18.47 75.0596 16.95 72.9196 16.95ZM72.9396 18.33C74.1096 18.33 75.0596 19.27 75.0596 20.5C75.0596 21.73 74.1096 22.69 72.9396 22.69C71.7696 22.69 70.7796 21.73 70.7796 20.5C70.7796 19.27 71.7596 18.33 72.9396 18.33ZM82.0163 24H83.8063L82.3163 21.69C83.1663 21.29 83.6263 20.51 83.6263 19.43C83.6263 17.88 82.5863 17 80.7563 17H77.7163V24H79.2963V22H80.7563H80.9063L82.0163 24ZM79.2963 20.68V18.31H80.7563C81.6263 18.31 82.1263 18.7 82.1263 19.48C82.1263 20.28 81.6263 20.68 80.7563 20.68H79.2963ZM90.2826 18.31V17H84.9526V24H90.3926V22.69H86.5326V21.14H89.9126V19.83H86.5326V18.31H90.2826Z" fill="white"/>
<g id="start-up 1">
<g clip-path="url(#clip0)">
<g id="Rocket">
<path id="Vector" d="M103.846 17.0144C103.63 17.0861 103.484 17.2879 103.484 17.515L103.484 17.6974C104.06 17.6486 104.705 17.6169 105.45 17.6169C105.503 17.6169 105.543 17.6313 105.593 17.6334L105.593 16.4601C104.636 16.7359 104.015 16.9585 103.846 17.0144Z" fill="white"/>
<path id="Vector_2" d="M105.45 21.835C104.703 21.8349 104.058 21.8045 103.484 21.7576L103.484 22.0047C103.484 22.2338 103.631 22.4368 103.85 22.5068C104.143 22.6005 104.589 22.7613 105.593 23.0471L105.593 21.8186C105.542 21.8208 105.502 21.8351 105.45 21.835Z" fill="white"/>
<path id="Vector_3" d="M107.16 19.7263C107.16 19.1874 106.161 18.6712 105.449 18.6711C103.067 18.6711 101.685 18.9776 100.945 19.2346C100.733 19.3082 100.591 19.5081 100.591 19.7326C100.591 19.9576 100.733 20.1574 100.946 20.2311C101.67 20.4818 103.039 20.7805 105.449 20.7806C106.232 20.7804 107.16 20.2386 107.16 19.7269V19.7263Z" fill="white"/>
<path id="Vector_4" d="M106.341 13.1289L104.232 13.1289C103.993 13.1289 103.784 13.2891 103.722 13.5198C103.66 13.7466 103.76 13.9927 103.968 14.113C104.691 14.5302 105.257 14.9672 105.508 15.3916C106.843 15.0178 108.146 14.7477 109.407 14.5801C109.293 14.0611 108.135 13.1288 106.341 13.1289Z" fill="white"/>
<path id="Vector_5" d="M103.767 26.0001C103.838 26.2164 104.04 26.3623 104.268 26.3622L106.377 26.3623C108.011 26.3622 109.208 25.4521 109.357 24.9327C107.96 24.7364 106.646 24.4363 105.468 24.1077C105.227 24.453 104.908 24.7031 103.954 25.4115C103.769 25.5484 103.696 25.7872 103.767 26.0001Z" fill="white"/>
<path id="Vector_6" d="M113.807 18.144C112.934 18.1441 112.225 18.8537 112.225 19.726C112.225 20.5984 112.934 21.3081 113.807 21.3081C114.679 21.308 115.389 20.5985 115.389 19.726C115.389 18.8536 114.679 18.144 113.807 18.144Z" fill="white"/>
<path id="Vector_7" d="M122.486 20.0701C122.657 19.8723 122.656 19.5797 122.486 19.3821C121.639 18.3973 120.614 17.5978 119.446 16.9771C118.899 17.6587 118.552 18.6412 118.552 19.7261C118.552 20.8239 118.918 21.8244 119.483 22.509C120.568 21.9059 121.586 21.1162 122.486 20.0701Z" fill="white"/>
<path id="Vector_8" d="M117.499 19.7263C117.499 18.4853 117.864 17.3621 118.467 16.5159C115.31 15.1951 111.161 15.0571 106.65 16.1805L106.65 17.8636C107.458 18.2051 108.218 18.8414 108.218 19.7267C108.218 20.6134 107.457 21.2483 106.65 21.5891L106.65 23.3275C110.123 24.1888 114.705 24.6541 118.517 22.9889C117.887 22.1345 117.499 20.9875 117.499 19.7263ZM113.807 22.3628C112.354 22.3628 111.171 21.18 111.171 19.7262C111.171 18.2723 112.354 17.0894 113.807 17.0895C115.261 17.0896 116.444 18.2724 116.444 19.7261C116.444 21.18 115.261 22.3628 113.807 22.3628Z" fill="white"/>
</g>
</g>
</g>
</g>
</g>
<defs>
<clipPath id="clip0">
<rect x="110.143" y="7" width="18" height="18" transform="rotate(45 110.143 7)" fill="white"/>
</clipPath>
</defs>
</svg>
