<svg width="200" height="44" viewBox="0 0 200 44" fill="none" xmlns="http://www.w3.org/2000/svg">
<g id="Read More">
<rect id="Rectangle 8" width="200" height="44" rx="2" fill="#00C2CC"/>
<path id="READ MORE" d="M61.3423 24.0962H59.5918V28H57.3945V17.3359H61.3569C62.6167 17.3359 63.5884 17.6167 64.272 18.1782C64.9556 18.7397 65.2974 19.5332 65.2974 20.5586C65.2974 21.2861 65.1387 21.894 64.8213 22.3823C64.5088 22.8657 64.0327 23.2515 63.3931 23.5396L65.7002 27.8975V28H63.3418L61.3423 24.0962ZM59.5918 22.3164H61.3643C61.916 22.3164 62.3433 22.1772 62.646 21.8989C62.9487 21.6157 63.1001 21.2275 63.1001 20.7344C63.1001 20.2314 62.9561 19.8359 62.668 19.5479C62.3848 19.2598 61.9478 19.1157 61.3569 19.1157H59.5918V22.3164ZM73.3906 23.3784H69.1719V26.2349H74.123V28H66.9746V17.3359H74.1084V19.1157H69.1719V21.6572H73.3906V23.3784ZM81.4326 25.8027H77.5801L76.8477 28H74.5112L78.481 17.3359H80.5171L84.5088 28H82.1724L81.4326 25.8027ZM78.1733 24.0229H80.8394L79.499 20.0312L78.1733 24.0229ZM85.5049 28V17.3359H88.7861C89.7236 17.3359 90.561 17.5483 91.2983 17.9731C92.0405 18.3931 92.6191 18.9937 93.0342 19.7749C93.4492 20.5513 93.6567 21.4351 93.6567 22.4263V22.917C93.6567 23.9082 93.4517 24.7896 93.0415 25.561C92.6362 26.3325 92.0625 26.9307 91.3203 27.3555C90.5781 27.7803 89.7407 27.9951 88.8081 28H85.5049ZM87.7021 19.1157V26.2349H88.7642C89.6235 26.2349 90.2803 25.9541 90.7344 25.3926C91.1885 24.8311 91.4204 24.0278 91.4302 22.9829V22.4189C91.4302 21.335 91.2056 20.5146 90.7563 19.958C90.3071 19.3965 89.6504 19.1157 88.7861 19.1157H87.7021ZM101.867 17.3359L104.606 25.0703L107.331 17.3359H110.217V28H108.012V25.085L108.232 20.0532L105.354 28H103.845L100.974 20.0605L101.193 25.085V28H98.9961V17.3359H101.867ZM120.896 22.9097C120.896 23.9595 120.71 24.8799 120.339 25.6709C119.968 26.4619 119.436 27.0723 118.742 27.502C118.054 27.9316 117.263 28.1465 116.369 28.1465C115.485 28.1465 114.697 27.9341 114.003 27.5093C113.31 27.0845 112.773 26.479 112.392 25.6929C112.011 24.9019 111.818 23.9937 111.813 22.9683V22.4409C111.813 21.3911 112.001 20.4683 112.377 19.6724C112.758 18.8716 113.293 18.2588 113.981 17.834C114.675 17.4043 115.466 17.1895 116.354 17.1895C117.243 17.1895 118.032 17.4043 118.72 17.834C119.414 18.2588 119.948 18.8716 120.324 19.6724C120.705 20.4683 120.896 21.3887 120.896 22.4336V22.9097ZM118.669 22.4263C118.669 21.3081 118.469 20.4585 118.068 19.8774C117.668 19.2964 117.097 19.0059 116.354 19.0059C115.617 19.0059 115.048 19.2939 114.648 19.8701C114.248 20.4414 114.045 21.2812 114.04 22.3896V22.9097C114.04 23.9985 114.24 24.8433 114.641 25.4438C115.041 26.0444 115.617 26.3447 116.369 26.3447C117.106 26.3447 117.673 26.0566 118.068 25.4805C118.464 24.8994 118.664 24.0547 118.669 22.9463V22.4263ZM126.44 24.0962H124.689V28H122.492V17.3359H126.455C127.714 17.3359 128.686 17.6167 129.37 18.1782C130.053 18.7397 130.395 19.5332 130.395 20.5586C130.395 21.2861 130.236 21.894 129.919 22.3823C129.606 22.8657 129.13 23.2515 128.491 23.5396L130.798 27.8975V28H128.439L126.44 24.0962ZM124.689 22.3164H126.462C127.014 22.3164 127.441 22.1772 127.744 21.8989C128.046 21.6157 128.198 21.2275 128.198 20.7344C128.198 20.2314 128.054 19.8359 127.766 19.5479C127.482 19.2598 127.045 19.1157 126.455 19.1157H124.689V22.3164ZM138.488 23.3784H134.27V26.2349H139.221V28H132.072V17.3359H139.206V19.1157H134.27V21.6572H138.488V23.3784Z" fill="white"/>
</g>
</svg>
