<svg width="26" height="26" viewBox="0 0 26 26" fill="none" xmlns="http://www.w3.org/2000/svg">
<g id="Rocket">
<path id="Vector" d="M6.84554 10.0144C6.62977 10.0861 6.48411 10.2879 6.48401 10.515L6.484 10.6974C7.05964 10.6486 7.70549 10.6169 8.45018 10.6169C8.50281 10.6169 8.54263 10.6313 8.59331 10.6334L8.59343 9.46013C7.63558 9.73592 7.01528 9.9585 6.84554 10.0144Z" fill="white"/>
<path id="Vector_2" d="M8.44975 14.835C7.70321 14.8349 7.05765 14.8045 6.48356 14.7576L6.48359 15.0047C6.48362 15.2338 6.63143 15.4368 6.84983 15.5068C7.14251 15.6005 7.58921 15.7613 8.59311 16.0471L8.59298 14.8186C8.54219 14.8208 8.50248 14.8351 8.44975 14.835Z" fill="white"/>
<path id="Vector_3" d="M10.1604 12.7263C10.1604 12.1874 9.16097 11.6712 8.44908 11.6711C6.06727 11.6711 4.68507 11.9776 3.94502 12.2346C3.73294 12.3082 3.59078 12.5081 3.59078 12.7326C3.59068 12.9576 3.73342 13.1574 3.9456 13.2311C4.66962 13.4818 6.039 13.7805 8.44907 13.7806C9.23213 13.7804 10.1603 13.2386 10.1604 12.7269V12.7263Z" fill="white"/>
<path id="Vector_4" d="M9.34105 6.12888L7.23162 6.12892C6.99312 6.12892 6.78404 6.28906 6.72227 6.5198C6.66041 6.74655 6.75955 6.99272 6.96785 7.11304C7.69073 7.53021 8.25687 7.96719 8.50799 8.39156C9.84278 8.01775 11.1455 7.74766 12.4067 7.58012C12.2932 7.06107 11.1351 6.12884 9.34105 6.12888Z" fill="white"/>
<path id="Vector_5" d="M6.76723 19.0001C6.83822 19.2164 7.04022 19.3623 7.26774 19.3622L9.37725 19.3623C11.0106 19.3622 12.2082 18.4521 12.357 17.9327C10.9599 17.7364 9.6458 17.4363 8.46833 17.1077C8.22693 17.453 7.90774 17.7031 6.95366 18.4115C6.76877 18.5484 6.69624 18.7872 6.76723 19.0001Z" fill="white"/>
<path id="Vector_6" d="M16.8066 11.144C15.9342 11.1441 15.2247 11.8537 15.2245 12.726C15.2245 13.5984 15.9342 14.3081 16.8066 14.3081C17.679 14.308 18.3886 13.5985 18.3886 12.726C18.3886 11.8536 17.679 11.144 16.8066 11.144Z" fill="white"/>
<path id="Vector_7" d="M25.4857 13.0701C25.6567 12.8723 25.6556 12.5797 25.4856 12.3821C24.6387 11.3973 23.6139 10.5978 22.4463 9.97707C21.8993 10.6587 21.5522 11.6412 21.5522 12.7261C21.5523 13.8239 21.9175 14.8244 22.4833 15.509C23.5681 14.9059 24.5862 14.1162 25.4857 13.0701Z" fill="white"/>
<path id="Vector_8" d="M20.4987 12.7263C20.4987 11.4853 20.8641 10.3621 21.4671 9.51593C18.3096 8.19511 14.1606 8.05706 9.64956 9.18052L9.64955 10.8636C10.458 11.2051 11.2176 11.8414 11.2177 12.7267C11.2176 13.6134 10.4571 14.2483 9.64952 14.5891L9.6495 16.3275C13.1235 17.1888 17.7052 17.6541 21.5167 15.9889C20.8866 15.1345 20.4987 13.9875 20.4987 12.7263ZM16.8072 15.3628C15.3535 15.3628 14.1707 14.18 14.1706 12.7262C14.1706 11.2723 15.3536 10.0894 16.8074 10.0895C18.2611 10.0896 19.444 11.2724 19.444 12.7261C19.444 14.18 18.2611 15.3628 16.8072 15.3628Z" fill="white"/>
</g>
</svg>
