<svg width="405" height="447" viewBox="0 0 405 447" fill="none" xmlns="http://www.w3.org/2000/svg">
<g id="Raketa goals">
<g id="raketa">
<g id="Layer x0020 1">
<g id="1969896164288">
<path id="Vector" fill-rule="evenodd" clip-rule="evenodd" d="M146.47 126.193C218.147 141.718 255.62 180.407 258.903 242.287L190.793 281.611C138.845 247.827 124.076 196.03 146.47 126.193Z" fill="#51BEE5"/>
<path id="Vector_2" fill-rule="evenodd" clip-rule="evenodd" d="M154.85 247.491C163.654 260.396 175.644 271.789 190.79 281.614C194.842 288.941 193.968 295.26 188.178 300.529C150.449 300.072 139.333 282.36 154.85 247.491Z" fill="#51BEE5"/>
<path id="Vector_3" fill-rule="evenodd" clip-rule="evenodd" d="M247.318 194.104C254.066 208.196 257.937 224.277 258.899 242.29C263.218 249.463 269.102 251.881 276.586 249.485C295.028 216.598 285.274 198.1 247.318 194.104Z" fill="#4BAFEA"/>
<path id="Vector_4" fill-rule="evenodd" clip-rule="evenodd" d="M247.321 194.103C273.597 199.028 279.795 216.054 265.882 245.127C261.023 245.716 257.948 243.167 256.67 237.437C256.249 223.507 253.115 209.073 247.321 194.103Z" fill="#51BEE5"/>
<path id="Vector_5" fill-rule="evenodd" clip-rule="evenodd" d="M191.668 281.106L258.015 242.8C275.801 261.64 275.915 287.375 258.358 320.006C221.32 318.895 199.09 305.929 191.668 281.106Z" fill="#FF892F"/>
<path id="Vector_6" fill-rule="evenodd" clip-rule="evenodd" d="M191.667 281.106L247.383 248.938C264.776 269.132 265.684 292.664 250.108 319.536C218.001 316.85 198.53 304.035 191.667 281.106Z" fill="#FFA05C"/>
<g id="Group">
<path id="Vector_7" fill-rule="evenodd" clip-rule="evenodd" d="M203.555 274.242L246.13 249.661C257.53 261.758 257.627 278.272 246.353 299.209C222.584 298.505 208.304 290.178 203.555 274.242Z" fill="#E0B044"/>
<path id="Vector_8" fill-rule="evenodd" clip-rule="evenodd" d="M203.55 274.245L239.287 253.612C250.468 266.562 251.066 281.661 241.054 298.925C220.463 297.186 207.952 288.964 203.55 274.245Z" fill="#FFD042"/>
</g>
<path id="Vector_9" fill-rule="evenodd" clip-rule="evenodd" d="M143.017 137.927C207.2 151.819 247.545 191.721 250.486 247.149L189.481 282.37C142.976 252.094 122.957 200.457 143.017 137.927Z" fill="#73D5EF"/>
<path id="Vector_10" d="M190.496 208.448C199.642 203.168 202.688 191.322 197.3 181.989C191.912 172.657 180.13 169.372 170.984 174.652C161.838 179.933 158.792 191.779 164.18 201.111C169.568 210.444 181.35 213.729 190.496 208.448Z" fill="white"/>
</g>
</g>
</g>
</g>
</svg>
