<svg width="245" height="270" viewBox="0 0 245 270" fill="none" xmlns="http://www.w3.org/2000/svg">
<g id="Layer x0020 1">
<g id="1969896164288">
<path id="Vector" fill-rule="evenodd" clip-rule="evenodd" d="M66.4697 38.1933C138.147 53.718 175.62 92.4069 178.903 154.287L110.793 193.611C58.8449 159.827 44.0756 108.03 66.4697 38.1933Z" fill="#51BEE5"/>
<path id="Vector_2" fill-rule="evenodd" clip-rule="evenodd" d="M74.8497 159.491C83.6538 172.396 95.6444 183.789 110.79 193.614C114.842 200.941 113.968 207.26 108.178 212.529C70.4488 212.072 59.3326 194.36 74.8497 159.491Z" fill="#51BEE5"/>
<path id="Vector_3" fill-rule="evenodd" clip-rule="evenodd" d="M167.318 106.104C174.066 120.196 177.937 136.277 178.899 154.29C183.218 161.463 189.102 163.881 196.586 161.485C215.028 128.598 205.274 110.1 167.318 106.104Z" fill="#4BAFEA"/>
<path id="Vector_4" fill-rule="evenodd" clip-rule="evenodd" d="M167.321 106.103C193.597 111.028 199.795 128.054 185.882 157.127C181.023 157.716 177.948 155.167 176.67 149.437C176.249 135.507 173.115 121.073 167.321 106.103Z" fill="#51BEE5"/>
<path id="Vector_5" fill-rule="evenodd" clip-rule="evenodd" d="M111.668 193.106L178.015 154.8C195.801 173.64 195.915 199.375 178.358 232.006C141.32 230.895 119.09 217.929 111.668 193.106Z" fill="#FF892F"/>
<path id="Vector_6" fill-rule="evenodd" clip-rule="evenodd" d="M111.667 193.106L167.383 160.938C184.776 181.132 185.684 204.664 170.108 231.536C138.001 228.85 118.53 216.035 111.667 193.106Z" fill="#FFA05C"/>
<g id="Group">
<path id="Vector_7" fill-rule="evenodd" clip-rule="evenodd" d="M123.555 186.242L166.13 161.661C177.53 173.758 177.627 190.272 166.353 211.209C142.584 210.505 128.304 202.178 123.555 186.242Z" fill="#E0B044"/>
<path id="Vector_8" fill-rule="evenodd" clip-rule="evenodd" d="M123.55 186.245L159.287 165.612C170.468 178.562 171.066 193.661 161.054 210.925C140.463 209.186 127.952 200.964 123.55 186.245Z" fill="#FFD042"/>
</g>
<path id="Vector_9" fill-rule="evenodd" clip-rule="evenodd" d="M63.0171 49.927C127.2 63.8193 167.545 103.721 170.486 159.149L109.481 194.37C62.9759 164.094 42.957 112.457 63.0171 49.927Z" fill="#73D5EF"/>
<path id="Vector_10" d="M110.496 120.448C119.642 115.168 122.688 103.322 117.3 93.9894C111.912 84.6569 100.13 81.3721 90.9839 86.6524C81.838 91.9328 78.7917 103.779 84.1798 113.111C89.5679 122.444 101.35 125.729 110.496 120.448Z" fill="white"/>
</g>
</g>
</svg>
