<svg width="367" height="219" viewBox="0 0 367 219" fill="none" xmlns="http://www.w3.org/2000/svg">
<g id="Group">
<path id="Vector" d="M313.003 51.1955C312.468 50.0088 308.617 48.0603 298.345 48.3857C291.971 48.5876 283.128 49.6622 271.067 52.3397C243.621 58.4254 208.902 70.6356 173.31 86.7186C137.717 102.802 105.605 120.784 82.9021 137.36C56.8396 156.381 53.4551 166.15 54.3221 168.075C55.6576 171.041 68.4901 173.249 97.713 166.608C96.8141 165.256 95.9466 163.88 95.1114 162.484C95.0819 162.435 95.0517 162.385 95.0222 162.336C94.6726 161.749 94.3293 161.158 93.991 160.564C93.9326 160.462 93.8742 160.359 93.8157 160.256C93.4993 159.697 93.1884 159.133 92.8825 158.567C92.8079 158.428 92.7332 158.289 92.6586 158.151C92.3677 157.607 92.0811 157.061 91.8 156.511C91.7167 156.348 91.6342 156.183 91.5516 156.02C91.2818 155.485 91.0155 154.95 90.7548 154.41C90.6674 154.229 90.5821 154.047 90.4954 153.865C90.2429 153.334 89.9917 152.802 89.7476 152.265C89.7453 152.261 89.7438 152.256 89.7415 152.252C93.4575 144.762 113.367 130.967 141.612 115.957C152.739 110.044 165.158 103.943 178.389 97.9648C225.203 76.8129 266.454 64.3091 277.716 67.3204C279.945 72.2741 281.799 77.4368 283.232 82.7776C307.523 65.2342 314.339 54.1479 313.003 51.1955Z" fill="#B68057"/>
<path id="Vector_2" d="M200.654 7.88965C201.32 8.00039 201.983 8.1191 202.644 8.24217C201.983 8.1191 201.32 8.00039 200.654 7.88965Z" fill="#FFD042"/>
<path id="Vector_3" d="M205.451 8.80518C206.202 8.96766 206.95 9.1374 207.696 9.31653C206.951 9.13809 206.203 8.96764 205.451 8.80518Z" fill="#FFD042"/>
<path id="Vector_4" d="M203.068 8.3208C203.775 8.45604 204.479 8.59851 205.18 8.74824C204.479 8.59925 203.775 8.45533 203.068 8.3208Z" fill="#FFD042"/>
<path id="Vector_5" d="M286.753 108.402C286.745 107.717 286.735 107.031 286.714 106.343C286.696 105.78 286.662 105.223 286.635 104.663C286.627 104.669 286.619 104.674 286.611 104.68C286.504 102.459 286.319 100.263 286.069 98.0861C286.08 98.0786 286.09 98.0719 286.1 98.0644C285.502 92.8498 284.514 87.7607 283.169 82.8219C283.19 82.8062 283.211 82.7905 283.233 82.7748C281.799 77.434 279.946 72.2706 277.717 67.3176C266.455 64.3071 225.204 76.8109 178.39 97.962C165.159 103.94 152.74 110.041 141.613 115.955C140.233 123.24 139.616 130.786 139.861 138.505C140.794 167.969 154.02 194.133 174.438 212.288C156.432 210.694 139.7 204.446 125.494 194.731C125.486 194.734 125.477 194.736 125.469 194.739C142.912 206.681 164.167 213.39 186.916 212.67C238.453 211.037 279.956 171.856 286.006 122.208C285.959 122.239 285.913 122.27 285.865 122.3C286.427 117.738 286.785 113.114 286.753 108.402Z" fill="#FFD042"/>
<path id="Vector_6" d="M241.798 24.4512C231.61 17.4827 220.122 12.3014 207.797 9.34033C220.111 12.3046 231.584 17.4943 241.765 24.4601C241.775 24.4569 241.786 24.4537 241.798 24.4512Z" fill="#FFD042"/>
<path id="Vector_7" d="M195.738 7.19336C196.322 7.26155 196.903 7.33845 197.484 7.41604C196.903 7.33845 196.322 7.26155 195.738 7.19336Z" fill="#FFD042"/>
<path id="Vector_8" d="M193.236 6.93164C193.783 6.98167 194.328 7.04107 194.872 7.10049C194.328 7.04107 193.784 6.98164 193.236 6.93164Z" fill="#FFD042"/>
<path id="Vector_9" d="M190.713 6.72949C191.22 6.76359 191.723 6.8071 192.228 6.84841C191.723 6.8071 191.219 6.76361 190.713 6.72949Z" fill="#FFD042"/>
<path id="Vector_10" d="M188.162 6.58789C188.626 6.6076 189.087 6.63668 189.55 6.66285C189.087 6.6374 188.626 6.60832 188.162 6.58789Z" fill="#FFD042"/>
<path id="Vector_11" d="M183 6.49414C183.322 6.49181 183.644 6.49811 183.965 6.49938C183.644 6.49811 183.322 6.49181 183 6.49414Z" fill="#FFD042"/>
<path id="Vector_12" d="M185.594 6.50977C186.005 6.51753 186.413 6.53397 186.822 6.54607C186.413 6.53397 186.004 6.51755 185.594 6.50977Z" fill="#FFD042"/>
<path id="Vector_13" d="M198.213 7.51318C198.837 7.6016 199.458 7.69798 200.079 7.79725C199.458 7.6987 198.837 7.6016 198.213 7.51318Z" fill="#FFD042"/>
<path id="Vector_14" d="M97.7179 166.606C96.8182 165.254 95.9479 163.88 95.1113 162.483C95.9472 163.88 96.8147 165.255 97.7129 166.607C97.7151 166.607 97.7165 166.607 97.7179 166.606Z" fill="#FFD042"/>
<path id="Vector_15" d="M90.7559 154.409C91.0165 154.949 91.2828 155.484 91.5527 156.019C91.2829 155.485 91.0165 154.949 90.7559 154.409Z" fill="#FFD042"/>
<path id="Vector_16" d="M92.8828 158.566C93.1888 159.132 93.4996 159.695 93.8161 160.255C93.4996 159.696 93.1888 159.132 92.8828 158.566Z" fill="#FFD042"/>
<path id="Vector_17" d="M93.9922 160.563C94.3305 161.157 94.6738 161.748 95.0234 162.334C94.6738 161.748 94.3312 161.157 93.9922 160.563Z" fill="#FFD042"/>
<path id="Vector_18" d="M91.8008 156.509C92.0818 157.059 92.3685 157.605 92.6594 158.149C92.3685 157.605 92.0825 157.058 91.8008 156.509Z" fill="#FFD042"/>
<path id="Vector_19" d="M89.75 152.264C89.9941 152.8 90.2445 153.333 90.4978 153.864C90.2445 153.333 89.9941 152.8 89.75 152.264Z" fill="#FFD042"/>
<path id="Vector_20" d="M139.861 138.506C139.617 130.787 140.234 123.241 141.614 115.956C113.369 130.965 93.4591 144.761 89.743 152.25C89.7453 152.255 89.7468 152.259 89.7491 152.263C89.9932 152.8 90.2436 153.332 90.4969 153.864C90.5836 154.045 90.6689 154.228 90.7563 154.408C91.017 154.948 91.2833 155.484 91.5531 156.018C91.6357 156.182 91.7175 156.345 91.8015 156.509C92.0826 157.059 92.3692 157.605 92.6602 158.149C92.7348 158.288 92.8094 158.426 92.884 158.565C93.1899 159.131 93.5008 159.695 93.8173 160.254C93.875 160.357 93.9341 160.46 93.9925 160.563C94.3309 161.156 94.6741 161.747 95.0237 162.334C95.0532 162.384 95.0834 162.433 95.1129 162.482C95.9496 163.879 96.8198 165.253 97.7195 166.605C97.7565 166.597 97.7914 166.589 97.8284 166.581C100.669 170.853 103.82 174.893 107.242 178.679C107.283 178.669 107.325 178.659 107.367 178.649C108.83 180.265 110.31 181.857 111.869 183.376C111.841 183.383 111.814 183.39 111.786 183.396C116.045 187.549 120.657 191.338 125.578 194.708C125.55 194.716 125.524 194.723 125.496 194.731C139.702 204.446 156.434 210.694 174.44 212.288C154.021 194.134 140.795 167.97 139.861 138.506Z" fill="#DBB246"/>
<path id="Vector_21" d="M241.765 24.4602C231.584 17.4944 220.111 12.3047 207.797 9.34042C207.763 9.33218 207.729 9.32465 207.695 9.31641C206.95 9.13798 206.202 8.96753 205.45 8.80507C205.36 8.78571 205.27 8.76707 205.18 8.74841C204.478 8.5987 203.775 8.45621 203.068 8.32097C202.926 8.29394 202.784 8.26906 202.642 8.24275C201.981 8.11897 201.319 8.00097 200.653 7.89023C200.462 7.85833 200.269 7.82931 200.078 7.79884C199.457 7.69886 198.836 7.60248 198.212 7.51478C197.969 7.48019 197.725 7.44994 197.483 7.4175C196.902 7.33917 196.321 7.26302 195.737 7.19482C195.449 7.16095 195.161 7.13285 194.873 7.10183C194.329 7.04313 193.784 6.98373 193.237 6.93299C192.902 6.90207 192.565 6.87763 192.229 6.84959C191.724 6.80827 191.22 6.76475 190.713 6.73066C190.326 6.70423 189.938 6.68644 189.55 6.66432C189.088 6.63813 188.627 6.60905 188.162 6.58936C187.716 6.57054 187.268 6.56037 186.821 6.54732C186.411 6.53521 186.003 6.51877 185.592 6.51101C185.051 6.50093 184.507 6.50239 183.964 6.50096C183.642 6.50041 183.321 6.4941 182.999 6.49571C182.13 6.50174 181.259 6.51786 180.386 6.54552C128.833 8.17847 87.321 47.3827 81.29 97.0508C104.785 81.8324 131.707 67.308 158.973 54.9899C187.356 42.1637 215.608 31.7839 241.765 24.4602Z" fill="#DBB246"/>
<path id="Vector_22" d="M359.538 30.1424L359.538 30.1395C352.327 14.1837 327.495 8.78024 287.734 14.4808C273.553 16.5169 258.081 19.8928 241.798 24.4507C241.788 24.4539 241.776 24.4571 241.766 24.4596C215.609 31.7833 187.357 42.1631 158.973 54.9879C131.708 67.3059 104.786 81.8304 81.2908 97.0488C31.3104 129.423 -3.1384 164.942 7.7651 189.078C13.4645 201.681 30.8588 207.628 57.1499 206.795C75.7786 206.205 98.9101 202.178 125.469 194.74C125.478 194.737 125.486 194.735 125.495 194.732C125.522 194.724 125.549 194.718 125.576 194.71C120.656 191.339 116.044 187.551 111.784 183.398C92.5122 188.285 75.4269 191.077 61.7625 191.51C43.7665 192.08 31.6515 188.616 28.0703 180.665C17.9719 158.24 79.6125 108.616 165.748 69.8263C221.339 44.7921 273.553 30.3886 306.304 29.3497C306.306 29.3497 306.31 29.3495 306.31 29.3495C324.303 28.7796 336.415 32.2439 339.996 40.1947C346.294 54.1799 324.684 78.7453 286.636 104.663C286.663 105.223 286.696 105.78 286.714 106.343C286.736 107.031 286.748 107.718 286.754 108.402C286.786 113.115 286.428 117.738 285.866 122.301C285.913 122.27 285.959 122.239 286.007 122.209C341.758 86.0086 369.252 51.6552 359.538 30.1424Z" fill="#D49E6C"/>
<path id="Vector_23" d="M168.101 75.0498C74.7076 117.108 26.6412 163.539 33.2941 178.313C35.6546 183.555 45.9652 186.279 61.5814 185.785C74.4128 185.378 89.962 182.905 107.24 178.681C103.818 174.894 100.668 170.853 97.8273 166.582C97.7903 166.591 97.7554 166.598 97.7184 166.606C97.717 166.607 97.7156 166.607 97.7142 166.607C68.4912 173.249 55.6587 171.041 54.3232 168.075C53.4562 166.149 56.8407 156.381 82.9032 137.359C105.606 120.783 137.718 102.801 173.311 86.7182C208.903 70.6352 243.621 58.425 271.068 52.3393C283.129 49.6625 291.972 48.5871 298.346 48.3852C308.618 48.0599 312.469 50.0091 313.005 51.195C314.34 54.1475 307.524 65.2338 283.235 82.7756C283.213 82.7914 283.192 82.8071 283.17 82.8228C284.516 87.7616 285.504 92.8506 286.102 98.0652C321.92 73.1049 338.904 51.7209 334.773 42.5474C332.413 37.3048 322.104 34.5807 306.492 35.0752L306.311 29.3495L306.487 35.0754C273.062 36.1355 221.33 51.0798 168.101 75.0498Z" fill="#D49E6C"/>
<path id="Vector_24" d="M107.367 178.65C107.325 178.661 107.284 178.67 107.241 178.681C89.9618 182.906 74.4132 185.378 61.5818 185.785C45.9663 186.279 35.6558 183.556 33.2946 178.313C26.6416 163.539 74.7081 117.108 168.102 75.05C221.33 51.0799 273.062 36.1357 306.486 35.0755L306.311 29.3496C306.311 29.3496 306.306 29.3497 306.304 29.3498C273.553 30.3886 221.34 44.7922 165.749 69.8264C79.6132 108.617 17.9726 158.241 28.0711 180.665C31.6522 188.618 43.7672 192.08 61.7632 191.51C75.4277 191.078 92.5129 188.286 111.785 183.398C111.813 183.391 111.84 183.385 111.869 183.378C110.309 181.858 108.829 180.266 107.367 178.65Z" fill="#B68057"/>
<path id="Vector_25" d="M334.773 42.5474C338.904 51.7209 321.92 73.1049 286.102 98.0653C286.091 98.0728 286.081 98.0795 286.071 98.087C286.32 100.264 286.505 102.461 286.612 104.68C286.62 104.675 286.628 104.669 286.637 104.664C324.684 78.746 346.294 54.1806 339.997 40.1954C336.416 32.2446 324.303 28.7803 306.311 29.3502L306.492 35.0759C322.104 34.5807 332.412 37.3041 334.773 42.5474Z" fill="#B68057"/>
</g>
</svg>
