<svg width="11" height="10" viewBox="0 0 11 10" fill="none" xmlns="http://www.w3.org/2000/svg">
<path id="Vector" d="M8.10397 6.28931H7.65229L7.49219 6.13493C8.05251 5.48313 8.38985 4.63694 8.38985 3.71641C8.38985 1.66381 6.72604 0 4.67344 0C2.62084 0 0.957031 1.66381 0.957031 3.71641C0.957031 5.76901 2.62084 7.43282 4.67344 7.43282C5.59397 7.43282 6.44016 7.09548 7.09197 6.53516L7.24634 6.69525V7.14694L10.1051 10L10.957 9.14808L8.10397 6.28931ZM4.67344 6.28931C3.24977 6.28931 2.10054 5.14008 2.10054 3.71641C2.10054 2.29274 3.24977 1.14351 4.67344 1.14351C6.09711 1.14351 7.24634 2.29274 7.24634 3.71641C7.24634 5.14008 6.09711 6.28931 4.67344 6.28931Z" fill="white" fill-opacity="0.8"/>
</svg>
