<svg width="22" height="22" viewBox="0 0 22 22" fill="none" xmlns="http://www.w3.org/2000/svg">
<g id="Share">
<path id="Vector" d="M16.5 14.7402C15.8033 14.7402 15.18 15.0152 14.7033 15.446L8.1675 11.6418C8.21333 11.431 8.25 11.2202 8.25 11.0002C8.25 10.7802 8.21333 10.5693 8.1675 10.3585L14.63 6.591C15.125 7.04933 15.7758 7.3335 16.5 7.3335C18.0217 7.3335 19.25 6.10516 19.25 4.5835C19.25 3.06183 18.0217 1.8335 16.5 1.8335C14.9783 1.8335 13.75 3.06183 13.75 4.5835C13.75 4.8035 13.7867 5.01433 13.8325 5.22516L7.37 8.99266C6.875 8.53433 6.22417 8.25016 5.5 8.25016C3.97833 8.25016 2.75 9.4785 2.75 11.0002C2.75 12.5218 3.97833 13.7502 5.5 13.7502C6.22417 13.7502 6.875 13.466 7.37 13.0077L13.8967 16.821C13.8508 17.0135 13.8233 17.2152 13.8233 17.4168C13.8233 18.8927 15.0242 20.0935 16.5 20.0935C17.9758 20.0935 19.1767 18.8927 19.1767 17.4168C19.1767 15.941 17.9758 14.7402 16.5 14.7402Z" fill="white" fill-opacity="0.7"/>
</g>
</svg>
