<svg width="301" height="249" viewBox="0 0 301 249" fill="none" xmlns="http://www.w3.org/2000/svg">
<g id="Zvezde">
<path id="Vector" d="M254.051 8.24678L260.805 7.5L254.051 6.75357L253.305 1.52276e-08L252.558 6.75357L245.805 7.5L252.558 8.24678L253.305 15.0002L254.051 8.24678Z" fill="white"/>
<path id="Vector_2" d="M9.79657 46.7966L17 46L9.79657 45.2038L9 38L8.20382 45.2038L1 46L8.20382 46.7966L9 54.0002L9.79657 46.7966Z" fill="white"/>
<path id="Vector_3" d="M62.1472 22.1472L68 21.5L62.1472 20.8531L61.5 15L60.8531 20.8531L55 21.5L60.8531 22.1472L61.5 28.0002L62.1472 22.1472Z" fill="white"/>
<path id="Vector_4" d="M231.597 209.597L237 209L231.597 208.403L231 203L230.403 208.403L225 209L230.403 209.597L231 215L231.597 209.597Z" fill="white"/>
<path id="Vector_5" d="M168.597 6.59743L174 6L168.597 5.40286L168 1.21821e-08L167.403 5.40286L162 6L167.403 6.59743L168 12.0001L168.597 6.59743Z" fill="white"/>
<path id="Vector_6" d="M273.597 243.597L279 243L273.597 242.403L273 237L272.403 242.403L267 243L272.403 243.597L273 249L273.597 243.597Z" fill="white"/>
<path id="Vector_7" d="M294.697 74.697L301 74L294.697 73.3033L294 67L293.303 73.3033L287 74L293.303 74.697L294 81.0002L294.697 74.697Z" fill="white"/>
<path id="Vector_8" d="M61.4578 218.267L67.3105 217.62L61.4578 216.973L60.8105 211.12L60.1636 216.973L54.3105 217.62L60.1636 218.267L60.8105 224.12L61.4578 218.267Z" fill="white"/>
<path id="Vector_9" d="M0.347427 163.817L2.46875 165.938L4.59007 163.817L2.46875 161.696L0.347427 163.817Z" fill="white" fill-opacity="0.8"/>
<path id="Vector_10" d="M42.6403 99.1101L45.4688 101.938L48.2972 99.1101L45.4688 96.2816L42.6403 99.1101Z" fill="white" fill-opacity="0.8"/>
<path id="Vector_11" d="M118.335 19.1849L120.805 21.6543L123.274 19.1849L120.805 16.7154L118.335 19.1849Z" fill="white" fill-opacity="0.8"/>
<path id="Vector_12" d="M268.271 165.046L270.393 167.167L272.514 165.046L270.393 162.924L268.271 165.046Z" fill="white" fill-opacity="0.8"/>
<path id="Vector_13" d="M162 242.829L164.828 245.657L167.657 242.829L164.828 240L162 242.829Z" fill="white" fill-opacity="0.8"/>
</g>
</svg>
