<svg width="430" height="410" viewBox="0 0 430 410" fill="none" xmlns="http://www.w3.org/2000/svg">
<g id="2850148101488">
<path id="Vector" fill-rule="evenodd" clip-rule="evenodd" d="M429.999 205.287L286.664 182.037V205.287H429.999Z" fill="#F8C749"/>
<path id="Vector_2" fill-rule="evenodd" clip-rule="evenodd" d="M429.999 205.289L286.664 228.591V205.289H429.999Z" fill="#E0B044"/>
<path id="Vector_3" fill-rule="evenodd" clip-rule="evenodd" d="M388.895 78.9419L259.238 144.325L272.968 163.207L388.895 78.9419Z" fill="#F8C749"/>
<path id="Vector_4" fill-rule="evenodd" clip-rule="evenodd" d="M388.929 78.9419L286.68 182.036L273.002 163.207L388.929 78.9419Z" fill="#E0B044"/>
<path id="Vector_5" fill-rule="evenodd" clip-rule="evenodd" d="M281.415 0.814453L215 129.969L237.156 137.147L281.415 0.814453Z" fill="#F8C749"/>
<path id="Vector_6" fill-rule="evenodd" clip-rule="evenodd" d="M281.404 0.814453L259.248 144.325L237.145 137.147L281.404 0.814453Z" fill="#E0B044"/>
<path id="Vector_7" fill-rule="evenodd" clip-rule="evenodd" d="M0 205.287L143.335 182.037V205.287H0Z" fill="#E0B044"/>
<path id="Vector_8" fill-rule="evenodd" clip-rule="evenodd" d="M0 205.289L143.335 228.591V205.289H0Z" fill="#F8C749"/>
<path id="Vector_9" fill-rule="evenodd" clip-rule="evenodd" d="M41.0391 78.9419L170.696 144.325L157.018 163.207L41.0391 78.9419Z" fill="#E0B044"/>
<path id="Vector_10" fill-rule="evenodd" clip-rule="evenodd" d="M41.0391 78.9419L143.339 182.036L157.018 163.207L41.0391 78.9419Z" fill="#F8C749"/>
<path id="Vector_11" fill-rule="evenodd" clip-rule="evenodd" d="M148.516 0.814453L214.982 129.969L192.827 137.147L148.516 0.814453Z" fill="#E0B044"/>
<path id="Vector_12" fill-rule="evenodd" clip-rule="evenodd" d="M148.516 0.814453L170.671 144.325L192.827 137.147L148.516 0.814453Z" fill="#F8C749"/>
<path id="Vector_13" fill-rule="evenodd" clip-rule="evenodd" d="M41.0391 331.685L170.696 266.302L157.018 247.42L41.0391 331.685Z" fill="#F8C749"/>
<path id="Vector_14" fill-rule="evenodd" clip-rule="evenodd" d="M41.0391 331.687L143.339 228.592L157.018 247.422L41.0391 331.687Z" fill="#E0B044"/>
<path id="Vector_15" fill-rule="evenodd" clip-rule="evenodd" d="M148.516 409.811L214.982 280.657L192.827 273.479L148.516 409.811Z" fill="#F8C749"/>
<path id="Vector_16" fill-rule="evenodd" clip-rule="evenodd" d="M148.516 409.814L170.671 266.304L192.827 273.482L148.516 409.814Z" fill="#E0B044"/>
<path id="Vector_17" fill-rule="evenodd" clip-rule="evenodd" d="M388.895 331.685L259.238 266.302L272.968 247.42L388.895 331.685Z" fill="#E0B044"/>
<path id="Vector_18" fill-rule="evenodd" clip-rule="evenodd" d="M388.929 331.687L286.68 228.592L273.002 247.422L388.929 331.687Z" fill="#F8C749"/>
<path id="Vector_19" fill-rule="evenodd" clip-rule="evenodd" d="M281.415 409.811L215 280.657L237.156 273.479L281.415 409.811Z" fill="#E0B044"/>
<path id="Vector_20" fill-rule="evenodd" clip-rule="evenodd" d="M281.404 409.814L259.248 266.304L237.145 273.482L281.404 409.814Z" fill="#F8C749"/>
<path id="Vector_21" fill-rule="evenodd" clip-rule="evenodd" d="M348.034 248.563L322.498 222.764L286.664 228.589L312.2 254.389L348.034 248.563Z" fill="#FFCC00"/>
<path id="Vector_22" fill-rule="evenodd" clip-rule="evenodd" d="M297.204 92.0986L264.803 108.431L259.238 144.322L291.691 127.989L297.204 92.0986Z" fill="#FFCC00"/>
<path id="Vector_23" fill-rule="evenodd" clip-rule="evenodd" d="M348.034 162.063L312.2 156.237L286.664 182.036L322.498 187.862L348.034 162.063Z" fill="#FFCC00"/>
<path id="Vector_24" fill-rule="evenodd" clip-rule="evenodd" d="M81.9258 248.563L107.514 222.764L143.348 228.589L117.76 254.389L81.9258 248.563Z" fill="#FFCC00"/>
<path id="Vector_25" fill-rule="evenodd" clip-rule="evenodd" d="M132.77 92.0986L165.171 108.431L170.684 144.322L138.282 127.989L132.77 92.0986Z" fill="#FFCC00"/>
<path id="Vector_26" fill-rule="evenodd" clip-rule="evenodd" d="M81.9258 162.063L117.76 156.237L143.348 182.036L107.514 187.862L81.9258 162.063Z" fill="#FFCC00"/>
<path id="Vector_27" fill-rule="evenodd" clip-rule="evenodd" d="M132.77 318.527L165.171 302.142L170.684 266.304L138.282 282.637L132.77 318.527Z" fill="#FFCC00"/>
<path id="Vector_28" fill-rule="evenodd" clip-rule="evenodd" d="M297.204 318.527L264.803 302.142L259.238 266.304L291.691 282.637L297.204 318.527Z" fill="#FFCC00"/>
<path id="Vector_29" fill-rule="evenodd" clip-rule="evenodd" d="M214.981 129.969L198.391 97.6678L214.981 65.3662L231.572 97.6678L214.981 129.969Z" fill="#FFCC00"/>
<path id="Vector_30" fill-rule="evenodd" clip-rule="evenodd" d="M214.983 280.655L198.34 312.956L214.983 345.258L231.573 312.956L214.983 280.655Z" fill="#FFCC00"/>
<path id="Vector_31" d="M214.999 281.231C256.935 281.231 290.931 247.23 290.931 205.288C290.931 163.346 256.935 129.346 214.999 129.346C173.062 129.346 139.066 163.346 139.066 205.288C139.066 247.23 173.062 281.231 214.999 281.231Z" fill="#FFCC00"/>
</g>
</svg>
