<svg width="165" height="150" viewBox="0 0 165 150" fill="none" xmlns="http://www.w3.org/2000/svg">
<g id="Tim">
<path id="Vector" d="M157.059 74.9982C157.059 94.6814 149.476 112.595 137.07 125.977C130.769 132.776 123.222 138.403 114.791 142.499C105.682 146.926 95.5401 149.561 84.8251 149.948C83.9078 149.984 82.9873 150 82.0601 150C81.1331 150 80.2123 149.984 79.295 149.948C68.58 149.561 58.4377 146.926 49.3296 142.499C40.8982 138.403 33.3514 132.776 27.0473 125.977C14.6444 112.595 7.05859 94.6816 7.05859 74.9982C7.05859 33.5795 40.6381 0 82.0604 0C123.483 0 157.059 33.5795 157.059 74.9982Z" fill="#473080"/>
<g id="Zvezde">
<path id="Vector_2" d="M86.4717 70.9678L87.7344 72.2305L88.9971 70.9678L87.7344 69.7051L86.4717 70.9678Z" fill="white"/>
<path id="Vector_3" d="M17.6475 58.6152L18.9102 59.8779L20.1729 58.6152L18.9102 57.3525L17.6475 58.6152Z" fill="white"/>
<path id="Vector_4" d="M89.1201 18.9092L90.3828 20.1719L91.6455 18.9092L90.3828 17.6465L89.1201 18.9092Z" fill="white"/>
<path id="Vector_5" d="M111.179 27.7324L112.441 28.9951L113.704 27.7324L112.441 26.4697L111.179 27.7324Z" fill="white"/>
<path id="Vector_6" d="M69.708 36.5562L70.9707 37.8188L72.2334 36.5562L70.9707 35.2935L69.708 36.5562Z" fill="white"/>
<path id="Vector_7" d="M143.825 55.9683L145.088 57.231L146.351 55.9683L145.088 54.7056L143.825 55.9683Z" fill="white"/>
<path id="Vector_8" d="M130.436 42.1967L136.811 41.4917L130.436 40.787L129.731 34.4111L129.026 40.787L122.65 41.4917L129.026 42.1967L129.731 48.5724L130.436 42.1967Z" fill="white"/>
<path id="Vector_9" d="M93.4409 48.4379L100.591 47.6472L93.4409 46.8569L92.6502 39.7061L91.8598 46.8569L84.709 47.6472L91.8598 48.4379L92.6502 55.5886L93.4409 48.4379Z" fill="white"/>
<path id="Vector_10" d="M65.141 19.2558L71.5165 18.5508L65.141 17.8461L64.436 11.4702L63.7313 17.8461L57.3555 18.5508L63.7313 19.2558L64.436 25.6315L65.141 19.2558Z" fill="white"/>
</g>
<g id="astronaut (3)">
<g clip-path="url(#clip0)">
<path id="Vector_11" d="M67.7927 70.9263H20.4431C17.931 70.9263 15.8945 72.9627 15.8945 75.4749V96.2274C15.8945 98.7395 17.931 100.776 20.4431 100.776H67.7927C70.3049 100.776 72.3413 98.7395 72.3413 96.2274V75.4749C72.3415 72.9627 70.3049 70.9263 67.7927 70.9263Z" fill="#CCCCCC"/>
<path id="Vector_12" d="M76.4789 101.455V106.69H70.373V100.209H76.4177C76.4578 100.618 76.4789 101.034 76.4789 101.455Z" fill="#F77759"/>
<path id="Vector_13" d="M28.4105 62.5678C32.0173 57.8377 37.7117 54.7856 44.1181 54.7856C50.5262 54.7856 56.2206 57.8377 59.8276 62.5678C62.3611 65.8876 63.8651 70.0342 63.8651 74.5326C63.8651 74.8981 63.8554 75.2616 63.8344 75.6233C63.5493 80.8757 61.213 85.5791 57.6098 88.9506C54.0815 92.2571 49.3361 94.2796 44.1181 94.2796C38.9021 94.2796 34.1585 92.257 30.6283 88.9525C27.0272 85.581 24.6889 80.8759 24.4018 75.6233C24.3827 75.2618 24.373 74.8981 24.373 74.5326C24.3732 70.034 25.8772 65.8876 28.4105 62.5678ZM59.4162 75.3247C59.4162 67.1045 52.568 63.4842 44.1181 63.4842C35.6703 63.4842 28.82 67.1045 28.82 75.3247C28.82 83.5467 35.6701 90.2114 44.1181 90.2114C52.568 90.2114 59.4162 83.5469 59.4162 75.3247Z" fill="#F2F2F2"/>
<path id="Vector_14" d="M51.0065 92.5569C45.7904 92.5569 41.0469 90.5344 37.5167 87.2299C33.9156 83.8583 31.5773 79.1532 31.2902 73.9006C31.2711 73.5391 31.2614 73.1755 31.2614 72.8099C31.2614 68.3113 32.7654 64.165 35.2989 60.8451C37.2666 58.2646 39.8568 56.1852 42.8439 54.8267C36.9602 55.2015 31.7762 58.1532 28.4105 62.5672C25.877 65.8871 24.373 70.0336 24.373 74.5321C24.373 74.8976 24.3827 75.2611 24.4018 75.6228C24.6888 80.8752 27.0272 85.5805 30.6283 88.952C34.1585 92.2565 38.9021 94.279 44.1181 94.279C47.0323 94.279 49.7988 93.6476 52.2883 92.5147C51.8645 92.5419 51.4375 92.5569 51.0065 92.5569Z" fill="#E6E6E6"/>
<path id="Vector_15" d="M44.1182 90.9763C35.2607 90.9763 28.0547 83.9549 28.0547 75.3242C28.0547 68.4434 32.6762 63.9227 40.7346 62.9213C41.8154 62.7865 42.9541 62.7183 44.1182 62.7183C48.6937 62.7183 52.5858 63.7471 55.374 65.6936C58.5193 67.8893 60.1817 71.2194 60.1817 75.324C60.1817 81.3838 56.5399 86.953 50.904 89.5127C48.7733 90.4838 46.4898 90.9763 44.1182 90.9763ZM44.1182 64.2491C43.017 64.2491 41.9421 64.3134 40.9234 64.4402C31.0585 65.6662 29.5854 71.7856 29.5854 75.3242C29.5854 83.1108 36.1048 89.4455 44.118 89.4455C46.2693 89.4455 48.3392 88.9993 50.27 88.1195C55.3613 85.8073 58.6508 80.7848 58.6508 75.3242C58.6508 71.6907 57.2534 68.8728 54.4977 66.9489C51.9678 65.1826 48.3785 64.2491 44.1182 64.2491Z" fill="#CCCCCC"/>
<path id="Vector_16" d="M59.4166 75.3242C59.4166 81.2961 55.804 86.4471 50.5879 88.8159C48.6228 89.7113 46.43 90.2108 44.1185 90.2108C35.6706 90.2108 28.8203 83.5462 28.8203 75.324C28.8203 68.2021 33.9617 64.5339 40.8291 63.6805C41.8891 63.5485 42.9893 63.4834 44.1183 63.4834C52.5684 63.4837 59.4166 67.104 59.4166 75.3242Z" fill="#46B5D3"/>
<path id="Vector_17" d="M59.4162 75.3245C59.4162 81.2964 55.8035 86.4475 50.5875 88.8162C50.1589 88.8545 49.7225 88.8717 49.2845 88.8717C40.8366 88.8717 33.9863 82.2072 33.9863 73.9849C33.9863 68.8071 36.7054 65.4528 40.8289 63.681C41.8889 63.549 42.9891 63.4839 44.1181 63.4839C52.568 63.4841 59.4162 67.1043 59.4162 75.3245Z" fill="#51BEE5"/>
<path id="Vector_18" d="M63.3736 88.9521V89.0191C59.0627 94.9872 52.0459 98.8715 44.1204 98.8715C36.1968 98.8715 29.1781 94.991 24.8672 89.0248V88.9521H30.6287C34.1589 92.2566 38.9025 94.2791 44.1185 94.2791C49.3365 94.2791 54.0819 92.2566 57.6102 88.9502L57.6121 88.9521H63.3736Z" fill="#CCCCCC"/>
<g id="Group">
<path id="Vector_19" d="M24.8651 89.0246V118.234C19.9054 115.824 15.4661 112.514 11.7578 108.515V101.454C11.7578 96.4908 14.6491 92.2027 18.8396 90.1859C20.4793 89.3937 22.3162 88.9517 24.2584 88.9517H24.8115C24.8287 88.9766 24.8459 89.0016 24.8651 89.0246Z" fill="#E6E6E6"/>
<path id="Vector_20" d="M76.4765 106.689V108.515C72.7701 112.514 68.3309 115.824 63.3711 118.233V89.0187C63.3883 88.9977 63.4056 88.9748 63.4209 88.9517H63.9739C65.9161 88.9517 67.7531 89.3937 69.3928 90.1859C73.2293 92.0325 75.977 95.7809 76.4153 100.209H70.3706V106.689H76.4765Z" fill="#E6E6E6"/>
</g>
<g id="Group_2">
<path id="Vector_21" d="M44.1185 98.873V122.648C37.2147 122.648 30.6822 121.061 24.8652 118.235V89.0264C29.1762 94.9926 36.1949 98.873 44.1185 98.873Z" fill="#F2F2F2"/>
<path id="Vector_22" d="M44.1191 98.8714V122.646C51.0229 122.646 57.5554 121.06 63.3724 118.234V89.019C59.0612 94.987 52.0446 98.8714 44.1191 98.8714Z" fill="#F2F2F2"/>
</g>
<path id="Vector_23" d="M54.132 79.1445C55.7171 79.1445 57.0022 77.0028 57.0022 74.3608C57.0022 71.7189 55.7171 69.5771 54.132 69.5771C52.5468 69.5771 51.2617 71.7189 51.2617 74.3608C51.2617 77.0028 52.5468 79.1445 54.132 79.1445Z" fill="#73D5EF"/>
<g id="Group_3">
<path id="Vector_24" d="M45.7452 97.332V122.616C45.2056 122.637 44.6641 122.647 44.1187 122.647C43.5734 122.647 43.0318 122.638 42.4922 122.616V97.332H45.7452Z" fill="#CCCCCC"/>
<path id="Vector_25" d="M53.315 104.029H34.9236C33.4503 104.029 32.2559 105.223 32.2559 106.697V114.564C32.2559 116.037 33.4503 117.232 34.9236 117.232H53.315C54.7882 117.232 55.9827 116.037 55.9827 114.564V106.697C55.9827 105.223 54.7884 104.029 53.315 104.029Z" fill="#CCCCCC"/>
</g>
<path id="Vector_26" d="M34.9225 114.745C34.823 114.745 34.7422 114.664 34.7422 114.564V106.697C34.7422 106.597 34.823 106.517 34.9225 106.517H53.3138C53.4133 106.517 53.4941 106.597 53.4941 106.697V114.564C53.4941 114.664 53.4131 114.745 53.3138 114.745H34.9225Z" fill="#B3B3B3"/>
<g id="Group_4">
<path id="Vector_27" d="M38.1555 112.894C39.3179 112.894 40.2602 111.952 40.2602 110.789C40.2602 109.627 39.3179 108.685 38.1555 108.685C36.9931 108.685 36.0508 109.627 36.0508 110.789C36.0508 111.952 36.9931 112.894 38.1555 112.894Z" fill="#F77759"/>
<path id="Vector_28" d="M50.0832 112.894C51.2457 112.894 52.188 111.952 52.188 110.789C52.188 109.627 51.2457 108.685 50.0832 108.685C48.9208 108.685 47.9785 109.627 47.9785 110.789C47.9785 111.952 48.9208 112.894 50.0832 112.894Z" fill="#F77759"/>
<path id="Vector_29" d="M44.1184 112.894C45.2808 112.894 46.2231 111.952 46.2231 110.789C46.2231 109.627 45.2808 108.685 44.1184 108.685C42.956 108.685 42.0137 109.627 42.0137 110.789C42.0137 111.952 42.956 112.894 44.1184 112.894Z" fill="#F77759"/>
<path id="Vector_30" d="M11.7578 101.455V106.69H17.8636V100.209H11.819C11.7788 100.618 11.7578 101.034 11.7578 101.455Z" fill="#F77759"/>
</g>
<path id="Vector_31" d="M33.3731 42.197L39.749 41.4922L33.3731 40.7875L32.6684 34.4116L31.9636 40.7875L25.5879 41.4922L31.9636 42.197L32.6684 48.5727L33.3731 42.197Z" fill="white"/>
</g>
</g>
<g id="astronaut (3)_2">
<g clip-path="url(#clip1)">
<path id="Vector_32" d="M144.556 70.9263H97.2068C94.6947 70.9263 92.6582 72.9627 92.6582 75.4749V96.2274C92.6582 98.7395 94.6947 100.776 97.2068 100.776H144.556C147.069 100.776 149.105 98.7395 149.105 96.2274V75.4749C149.105 72.9627 147.069 70.9263 144.556 70.9263Z" fill="#CCCCCC"/>
<path id="Vector_33" d="M153.243 101.455V106.69H147.137V100.209H153.181C153.222 100.618 153.243 101.034 153.243 101.455Z" fill="#F77759"/>
<path id="Vector_34" d="M105.174 62.5678C108.781 57.8377 114.475 54.7856 120.882 54.7856C127.29 54.7856 132.984 57.8377 136.591 62.5678C139.125 65.8876 140.629 70.0342 140.629 74.5326C140.629 74.8981 140.619 75.2616 140.598 75.6233C140.313 80.8757 137.977 85.5791 134.374 88.9506C130.845 92.2571 126.1 94.2796 120.882 94.2796C115.666 94.2796 110.922 92.257 107.392 88.9525C103.791 85.581 101.453 80.8759 101.165 75.6233C101.146 75.2618 101.137 74.8981 101.137 74.5326C101.137 70.034 102.641 65.8876 105.174 62.5678ZM136.18 75.3247C136.18 67.1045 129.332 63.4842 120.882 63.4842C112.434 63.4842 105.584 67.1045 105.584 75.3247C105.584 83.5467 112.434 90.2114 120.882 90.2114C129.332 90.2114 136.18 83.5469 136.18 75.3247Z" fill="#F2F2F2"/>
<path id="Vector_35" d="M127.77 92.5569C122.554 92.5569 117.811 90.5344 114.28 87.2299C110.679 83.8583 108.341 79.1532 108.054 73.9006C108.035 73.5391 108.025 73.1755 108.025 72.8099C108.025 68.3113 109.529 64.165 112.063 60.8451C114.03 58.2646 116.62 56.1852 119.608 54.8267C113.724 55.2015 108.54 58.1532 105.174 62.5672C102.641 65.8871 101.137 70.0336 101.137 74.5321C101.137 74.8976 101.146 75.2611 101.165 75.6228C101.452 80.8752 103.791 85.5805 107.392 88.952C110.922 92.2565 115.666 94.279 120.882 94.279C123.796 94.279 126.562 93.6476 129.052 92.5147C128.628 92.5419 128.201 92.5569 127.77 92.5569Z" fill="#E6E6E6"/>
<path id="Vector_36" d="M120.882 90.9763C112.024 90.9763 104.818 83.9549 104.818 75.3242C104.818 68.4434 109.44 63.9227 117.498 62.9213C118.579 62.7865 119.718 62.7183 120.882 62.7183C125.457 62.7183 129.35 63.7471 132.138 65.6936C135.283 67.8893 136.945 71.2194 136.945 75.324C136.945 81.3838 133.304 86.953 127.668 89.5127C125.537 90.4838 123.254 90.9763 120.882 90.9763ZM120.882 64.2491C119.781 64.2491 118.706 64.3134 117.687 64.4402C107.822 65.6662 106.349 71.7856 106.349 75.3242C106.349 83.1108 112.868 89.4455 120.882 89.4455C123.033 89.4455 125.103 88.9993 127.034 88.1195C132.125 85.8073 135.414 80.7848 135.414 75.3242C135.414 71.6907 134.017 68.8728 131.261 66.9489C128.732 65.1826 125.142 64.2491 120.882 64.2491Z" fill="#CCCCCC"/>
<path id="Vector_37" d="M136.18 75.3242C136.18 81.2961 132.568 86.4471 127.352 88.8159C125.386 89.7113 123.194 90.2108 120.882 90.2108C112.434 90.2108 105.584 83.5462 105.584 75.324C105.584 68.2021 110.725 64.5339 117.593 63.6805C118.653 63.5485 119.753 63.4834 120.882 63.4834C129.332 63.4837 136.18 67.104 136.18 75.3242Z" fill="#46B5D3"/>
<path id="Vector_38" d="M136.18 75.3245C136.18 81.2964 132.567 86.4475 127.351 88.8162C126.923 88.8545 126.486 88.8717 126.048 88.8717C117.6 88.8717 110.75 82.2072 110.75 73.9849C110.75 68.8071 113.469 65.4528 117.593 63.681C118.653 63.549 119.753 63.4839 120.882 63.4839C129.332 63.4841 136.18 67.1043 136.18 75.3245Z" fill="#51BEE5"/>
<path id="Vector_39" d="M140.137 88.9521V89.0191C135.826 94.9872 128.81 98.8715 120.884 98.8715C112.96 98.8715 105.942 94.991 101.631 89.0248V88.9521H107.392C110.923 92.2566 115.666 94.2791 120.882 94.2791C126.1 94.2791 130.846 92.2566 134.374 88.9502L134.376 88.9521H140.137Z" fill="#CCCCCC"/>
<g id="Group_5">
<path id="Vector_40" d="M101.629 89.0246V118.234C96.6691 115.824 92.2298 112.514 88.5215 108.515V101.454C88.5215 96.4908 91.4127 92.2027 95.6032 90.1859C97.243 89.3937 99.0799 88.9517 101.022 88.9517H101.575C101.592 88.9766 101.61 89.0016 101.629 89.0246Z" fill="#E6E6E6"/>
<path id="Vector_41" d="M153.24 106.689V108.515C149.534 112.514 145.095 115.824 140.135 118.233V89.0187C140.152 88.9977 140.169 88.9748 140.185 88.9517H140.738C142.68 88.9517 144.517 89.3937 146.156 90.1859C149.993 92.0325 152.741 95.7809 153.179 100.209H147.134V106.689H153.24Z" fill="#E6E6E6"/>
</g>
<g id="Group_6">
<path id="Vector_42" d="M120.882 98.873V122.648C113.978 122.648 107.446 121.061 101.629 118.235V89.0264C105.94 94.9926 112.959 98.873 120.882 98.873Z" fill="#F2F2F2"/>
<path id="Vector_43" d="M120.883 98.8714V122.646C127.787 122.646 134.319 121.06 140.136 118.234V89.019C135.825 94.987 128.808 98.8714 120.883 98.8714Z" fill="#F2F2F2"/>
</g>
<path id="Vector_44" d="M130.896 79.1445C132.481 79.1445 133.766 77.0028 133.766 74.3608C133.766 71.7189 132.481 69.5771 130.896 69.5771C129.31 69.5771 128.025 71.7189 128.025 74.3608C128.025 77.0028 129.31 79.1445 130.896 79.1445Z" fill="#73D5EF"/>
<g id="Group_7">
<path id="Vector_45" d="M122.509 97.332V122.616C121.969 122.637 121.428 122.647 120.882 122.647C120.337 122.647 119.795 122.638 119.256 122.616V97.332H122.509Z" fill="#CCCCCC"/>
<path id="Vector_46" d="M130.079 104.029H111.687C110.214 104.029 109.02 105.223 109.02 106.697V114.564C109.02 116.037 110.214 117.232 111.687 117.232H130.079C131.552 117.232 132.746 116.037 132.746 114.564V106.697C132.746 105.223 131.552 104.029 130.079 104.029Z" fill="#CCCCCC"/>
</g>
<path id="Vector_47" d="M111.686 114.745C111.587 114.745 111.506 114.664 111.506 114.564V106.697C111.506 106.597 111.587 106.517 111.686 106.517H130.078C130.177 106.517 130.258 106.597 130.258 106.697V114.564C130.258 114.664 130.177 114.745 130.078 114.745H111.686Z" fill="#B3B3B3"/>
<g id="Group_8">
<path id="Vector_48" d="M114.919 112.894C116.082 112.894 117.024 111.952 117.024 110.789C117.024 109.627 116.082 108.685 114.919 108.685C113.757 108.685 112.814 109.627 112.814 110.789C112.814 111.952 113.757 112.894 114.919 112.894Z" fill="#F77759"/>
<path id="Vector_49" d="M126.847 112.894C128.009 112.894 128.952 111.952 128.952 110.789C128.952 109.627 128.009 108.685 126.847 108.685C125.685 108.685 124.742 109.627 124.742 110.789C124.742 111.952 125.685 112.894 126.847 112.894Z" fill="#F77759"/>
<path id="Vector_50" d="M120.882 112.894C122.044 112.894 122.987 111.952 122.987 110.789C122.987 109.627 122.044 108.685 120.882 108.685C119.72 108.685 118.777 109.627 118.777 110.789C118.777 111.952 119.72 112.894 120.882 112.894Z" fill="#F77759"/>
<path id="Vector_51" d="M88.5215 101.455V106.69H94.6273V100.209H88.5827C88.5425 100.618 88.5215 101.034 88.5215 101.455Z" fill="#F77759"/>
</g>
</g>
</g>
<g id="astronaut (3)_3">
<g clip-path="url(#clip2)">
<path id="Vector_52" d="M105.734 98.2788H58.3845C55.8724 98.2788 53.8359 100.315 53.8359 102.827V123.58C53.8359 126.092 55.8724 128.129 58.3845 128.129H105.734C108.246 128.129 110.283 126.092 110.283 123.58V102.827C110.283 100.315 108.246 98.2788 105.734 98.2788Z" fill="#CCCCCC"/>
<path id="Vector_53" d="M114.42 128.807V134.042H108.314V127.562H114.359C114.399 127.971 114.42 128.386 114.42 128.807Z" fill="#F77759"/>
<path id="Vector_54" d="M66.3519 89.9198C69.9587 85.1897 75.6531 82.1377 82.0595 82.1377C88.4676 82.1377 94.162 85.1897 97.769 89.9198C100.303 93.2397 101.806 97.3862 101.806 101.885C101.806 102.25 101.797 102.614 101.776 102.975C101.491 108.228 99.1544 112.931 95.5512 116.303C92.0229 119.609 87.2775 121.632 82.0595 121.632C76.8435 121.632 72.1 119.609 68.5697 116.305C64.9686 112.933 62.6303 108.228 62.3432 102.975C62.3241 102.614 62.3145 102.25 62.3145 101.885C62.3146 97.386 63.8186 93.2397 66.3519 89.9198ZM97.3577 102.677C97.3577 94.4565 90.5094 90.8363 82.0595 90.8363C73.6117 90.8363 66.7614 94.4565 66.7614 102.677C66.7614 110.899 73.6115 117.564 82.0595 117.564C90.5094 117.564 97.3577 110.899 97.3577 102.677Z" fill="#F2F2F2"/>
<path id="Vector_55" d="M88.9479 119.909C83.7318 119.909 78.9883 117.887 75.4581 114.582C71.857 111.211 69.5187 106.506 69.2316 101.253C69.2125 100.892 69.2028 100.528 69.2028 100.162C69.2028 95.6639 70.7068 91.5175 73.2403 88.1976C75.208 85.6171 77.7982 83.5377 80.7853 82.1792C74.9016 82.554 69.7176 85.5058 66.3519 89.9198C63.8184 93.2396 62.3145 97.3862 62.3145 101.885C62.3145 102.25 62.3241 102.614 62.3432 102.975C62.6302 108.228 64.9686 112.933 68.5697 116.305C72.1 119.609 76.8435 121.632 82.0595 121.632C84.9737 121.632 87.7402 121 90.2297 119.867C89.8059 119.894 89.3789 119.909 88.9479 119.909Z" fill="#E6E6E6"/>
<path id="Vector_56" d="M82.0596 118.329C73.2021 118.329 65.9961 111.308 65.9961 102.677C65.9961 95.7964 70.6176 91.2757 78.676 90.2743C79.7568 90.1395 80.8955 90.0713 82.0596 90.0713C86.6351 90.0713 90.5272 91.1001 93.3154 93.0466C96.4607 95.2424 98.1231 98.5724 98.1231 102.677C98.1231 108.737 94.4813 114.306 88.8454 116.866C86.7147 117.837 84.4313 118.329 82.0596 118.329ZM82.0596 91.6021C80.9584 91.6021 79.8835 91.6664 78.8648 91.7933C68.9999 93.0192 67.5268 99.1387 67.5268 102.677C67.5268 110.464 74.0462 116.798 82.0594 116.798C84.2107 116.798 86.2806 116.352 88.2114 115.473C93.3027 113.16 96.5922 108.138 96.5922 102.677C96.5922 99.0437 95.1948 96.2259 92.4391 94.3019C89.9093 92.5357 86.3199 91.6021 82.0596 91.6021Z" fill="#CCCCCC"/>
<path id="Vector_57" d="M97.358 102.677C97.358 108.649 93.7454 113.8 88.5293 116.169C86.5642 117.064 84.3714 117.564 82.0599 117.564C73.612 117.564 66.7617 110.899 66.7617 102.677C66.7617 95.5551 71.9032 91.887 78.7705 91.0336C79.8305 90.9016 80.9307 90.8364 82.0597 90.8364C90.5098 90.8368 97.358 94.457 97.358 102.677Z" fill="#46B5D3"/>
<path id="Vector_58" d="M97.3576 102.677C97.3576 108.649 93.7449 113.8 88.5289 116.169C88.1003 116.207 87.664 116.224 87.2259 116.224C78.778 116.224 71.9277 109.56 71.9277 101.337C71.9277 96.1597 74.6468 92.8053 78.7703 91.0336C79.8303 90.9016 80.9305 90.8364 82.0595 90.8364C90.5094 90.8366 97.3576 94.4568 97.3576 102.677Z" fill="#51BEE5"/>
<path id="Vector_59" d="M101.315 116.305V116.372C97.0041 122.34 89.9873 126.224 82.0618 126.224C74.1382 126.224 67.1195 122.344 62.8086 116.377V116.305H68.5701C72.1004 119.609 76.8439 121.632 82.0599 121.632C87.2779 121.632 92.0233 119.609 95.5516 116.303L95.5535 116.305H101.315Z" fill="#CCCCCC"/>
<g id="Group_9">
<path id="Vector_60" d="M62.8065 116.377V145.586C57.8469 143.177 53.4075 139.867 49.6992 135.868V128.807C49.6992 123.843 52.5905 119.555 56.781 117.538C58.4207 116.746 60.2576 116.304 62.1999 116.304H62.7529C62.7701 116.329 62.7873 116.354 62.8065 116.377Z" fill="#E6E6E6"/>
<path id="Vector_61" d="M114.418 134.042V135.867C110.711 139.866 106.272 143.177 101.312 145.586V116.371C101.33 116.35 101.347 116.327 101.362 116.304H101.915C103.858 116.304 105.694 116.746 107.334 117.538C111.171 119.385 113.918 123.133 114.357 127.561H108.312V134.042H114.418Z" fill="#E6E6E6"/>
</g>
<g id="Group_10">
<path id="Vector_62" d="M82.0599 126.227V150.001C75.1561 150.001 68.6236 148.415 62.8066 145.589V116.38C67.1176 122.346 74.1363 126.227 82.0599 126.227Z" fill="#F2F2F2"/>
<path id="Vector_63" d="M82.0605 126.224V149.999C88.9643 149.999 95.4968 148.412 101.314 145.586V116.372C97.0027 122.34 89.986 126.224 82.0605 126.224Z" fill="#F2F2F2"/>
</g>
<path id="Vector_64" d="M92.0734 106.497C93.6585 106.497 94.9436 104.355 94.9436 101.713C94.9436 99.0714 93.6585 96.9297 92.0734 96.9297C90.4882 96.9297 89.2031 99.0714 89.2031 101.713C89.2031 104.355 90.4882 106.497 92.0734 106.497Z" fill="#73D5EF"/>
<g id="Group_11">
<path id="Vector_65" d="M83.6866 124.685V149.969C83.147 149.99 82.6055 150 82.0601 150C81.5148 150 80.9732 149.99 80.4336 149.969V124.685H83.6866Z" fill="#CCCCCC"/>
<path id="Vector_66" d="M91.2564 131.381H72.865C71.3917 131.381 70.1973 132.576 70.1973 134.049V141.917C70.1973 143.39 71.3917 144.584 72.865 144.584H91.2564C92.7296 144.584 93.9241 143.39 93.9241 141.917V134.049C93.9241 132.576 92.7298 131.381 91.2564 131.381Z" fill="#CCCCCC"/>
</g>
<path id="Vector_67" d="M72.8639 142.097C72.7644 142.097 72.6836 142.016 72.6836 141.917V134.049C72.6836 133.95 72.7644 133.869 72.8639 133.869H91.2552C91.3547 133.869 91.4355 133.95 91.4355 134.049V141.917C91.4355 142.016 91.3545 142.097 91.2552 142.097H72.8639Z" fill="#B3B3B3"/>
<g id="Group_12">
<path id="Vector_68" d="M76.0969 140.247C77.2593 140.247 78.2016 139.304 78.2016 138.142C78.2016 136.979 77.2593 136.037 76.0969 136.037C74.9345 136.037 73.9922 136.979 73.9922 138.142C73.9922 139.304 74.9345 140.247 76.0969 140.247Z" fill="#F77759"/>
<path id="Vector_69" d="M88.0246 140.247C89.1871 140.247 90.1294 139.304 90.1294 138.142C90.1294 136.979 89.1871 136.037 88.0246 136.037C86.8622 136.037 85.9199 136.979 85.9199 138.142C85.9199 139.304 86.8622 140.247 88.0246 140.247Z" fill="#F77759"/>
<path id="Vector_70" d="M82.0598 140.247C83.2222 140.247 84.1645 139.304 84.1645 138.142C84.1645 136.979 83.2222 136.037 82.0598 136.037C80.8974 136.037 79.9551 136.979 79.9551 138.142C79.9551 139.304 80.8974 140.247 82.0598 140.247Z" fill="#F77759"/>
<path id="Vector_71" d="M49.6992 128.807V134.042H55.805V127.562H49.7604C49.7202 127.971 49.6992 128.386 49.6992 128.807Z" fill="#F77759"/>
</g>
</g>
</g>
</g>
<defs>
<clipPath id="clip0">
<rect y="34.4116" width="88.2353" height="88.2353" fill="white"/>
</clipPath>
<clipPath id="clip1">
<rect x="76.7637" y="34.4116" width="88.2353" height="88.2353" fill="white"/>
</clipPath>
<clipPath id="clip2">
<rect x="37.9414" y="61.7642" width="88.2353" height="88.2353" fill="white"/>
</clipPath>
</defs>
</svg>
