<svg width="27" height="27" viewBox="0 0 27 27" fill="none" xmlns="http://www.w3.org/2000/svg">
<g id="Twitter">
<path id="Combined-Shape" fill-rule="evenodd" clip-rule="evenodd" d="M13.6285 0.0639648C6.24408 0.0639648 0.257812 6.05023 0.257812 13.4347C0.257812 20.8191 6.24408 26.8054 13.6285 26.8054C21.0129 26.8054 26.9992 20.8191 26.9992 13.4347C26.9992 6.05023 21.0129 0.0639648 13.6285 0.0639648ZM13.2554 11.3944L13.2273 10.9317C13.1431 9.73262 13.882 8.63735 15.0511 8.21246C15.4813 8.06139 16.2108 8.0425 16.6877 8.17469C16.8748 8.23134 17.2302 8.42018 17.4827 8.59014L17.941 8.90172L18.446 8.74121C18.7266 8.65623 19.1007 8.5146 19.269 8.42018C19.428 8.33521 19.5683 8.288 19.5683 8.31632C19.5683 8.47684 19.2223 9.02447 18.9324 9.32661C18.5395 9.7515 18.6518 9.78927 19.4467 9.50601C19.9237 9.3455 19.9331 9.3455 19.8396 9.52489C19.7834 9.61931 19.4935 9.94978 19.1849 10.2519C18.6611 10.7712 18.6331 10.8279 18.6331 11.2622C18.6331 11.9326 18.3151 13.33 17.9971 14.0948C17.4079 15.53 16.1453 17.0124 14.8827 17.7583C13.1057 18.8063 10.7395 19.0707 8.74745 18.457C8.08342 18.2493 6.94241 17.7205 6.94241 17.6261C6.94241 17.5978 7.28846 17.56 7.70932 17.5506C8.58846 17.5317 9.4676 17.2862 10.2158 16.8519L10.7208 16.5497L10.141 16.3514C9.31796 16.0682 8.57911 15.4167 8.39206 14.803C8.33594 14.6047 8.35465 14.5952 8.87839 14.5952L9.42083 14.5858L8.96256 14.3686C8.42011 14.0948 7.92443 13.6321 7.68126 13.1601C7.50357 12.8201 7.2791 11.9609 7.34457 11.8948C7.36328 11.8665 7.55968 11.9232 7.78414 11.9987C8.42947 12.2347 8.51364 12.1781 8.13954 11.7815C7.4381 11.0639 7.22299 9.99699 7.55968 8.9867L7.71867 8.53349L8.33594 9.14721C9.59853 10.3841 11.0856 11.1206 12.7877 11.3378L13.2554 11.3944Z" fill="#131C6D"/>
</g>
</svg>
