<svg width="27" height="27" viewBox="0 0 27 27" fill="none" xmlns="http://www.w3.org/2000/svg">
<g id="Twitter">
<path id="Combined-Shape" fill-rule="evenodd" clip-rule="evenodd" d="M13.5895 0.0639648C6.20502 0.0639648 0.21875 6.05023 0.21875 13.4347C0.21875 20.8191 6.20502 26.8054 13.5895 26.8054C20.9739 26.8054 26.9602 20.8191 26.9602 13.4347C26.9602 6.05023 20.9739 0.0639648 13.5895 0.0639648ZM13.2163 11.3944L13.1883 10.9317C13.1041 9.73262 13.8429 8.63735 15.012 8.21246C15.4422 8.06139 16.1717 8.0425 16.6487 8.17469C16.8357 8.23134 17.1911 8.42018 17.4437 8.59014L17.9019 8.90172L18.407 8.74121C18.6875 8.65623 19.0616 8.5146 19.23 8.42018C19.389 8.33521 19.5293 8.288 19.5293 8.31632C19.5293 8.47684 19.1832 9.02447 18.8933 9.32661C18.5005 9.7515 18.6127 9.78927 19.4077 9.50601C19.8847 9.3455 19.894 9.3455 19.8005 9.52489C19.7444 9.61931 19.4544 9.94978 19.1458 10.2519C18.6221 10.7712 18.594 10.8279 18.594 11.2622C18.594 11.9326 18.276 13.33 17.958 14.0948C17.3688 15.53 16.1062 17.0124 14.8436 17.7583C13.0667 18.8063 10.7005 19.0707 8.70839 18.457C8.04436 18.2493 6.90335 17.7205 6.90335 17.6261C6.90335 17.5978 7.24939 17.56 7.67026 17.5506C8.5494 17.5317 9.42853 17.2862 10.1767 16.8519L10.6818 16.5497L10.1019 16.3514C9.27889 16.0682 8.54004 15.4167 8.35299 14.803C8.29688 14.6047 8.31558 14.5952 8.83932 14.5952L9.38177 14.5858L8.9235 14.3686C8.38105 14.0948 7.88537 13.6321 7.6422 13.1601C7.4645 12.8201 7.24004 11.9609 7.30551 11.8948C7.32421 11.8665 7.52062 11.9232 7.74508 11.9987C8.3904 12.2347 8.47458 12.1781 8.10047 11.7815C7.39903 11.0639 7.18393 9.99699 7.52062 8.9867L7.67961 8.53349L8.29688 9.14721C9.55947 10.3841 11.0465 11.1206 12.7487 11.3378L13.2163 11.3944Z" fill="#322B6C"/>
</g>
</svg>
