<svg width="26" height="26" viewBox="0 0 26 26" fill="none" xmlns="http://www.w3.org/2000/svg">
<path fill-rule="evenodd" clip-rule="evenodd" d="M12.6211 0.120117C5.71753 0.120117 0.121094 5.71656 0.121094 12.6201C0.121094 19.5237 5.71753 25.1201 12.6211 25.1201C19.5247 25.1201 25.1211 19.5237 25.1211 12.6201C25.1211 5.71656 19.5247 0.120117 12.6211 0.120117ZM12.2732 10.7128L12.2469 10.2803C12.1682 9.15923 12.859 8.13528 13.9519 7.73806C14.3541 7.59683 15.0361 7.57918 15.482 7.70275C15.6569 7.75572 15.9891 7.93226 16.2252 8.09115L16.6537 8.38244L17.1258 8.23238C17.3881 8.15294 17.7378 8.02053 17.8952 7.93226C18.0439 7.85282 18.175 7.80868 18.175 7.83516C18.175 7.98522 17.8515 8.49719 17.5805 8.77966C17.2132 9.17688 17.3182 9.21219 18.0614 8.94738C18.5073 8.79732 18.516 8.79732 18.4286 8.96503C18.3761 9.0533 18.1051 9.36225 17.8165 9.64472C17.3269 10.1302 17.3007 10.1832 17.3007 10.5892C17.3007 11.2159 17.0034 12.5224 16.7061 13.2374C16.1553 14.5791 14.9749 15.9649 13.7945 16.6623C12.1333 17.6421 9.92116 17.8892 8.0588 17.3155C7.43801 17.1213 6.3713 16.627 6.3713 16.5387C6.3713 16.5122 6.69481 16.4769 7.08827 16.4681C7.91016 16.4504 8.73205 16.2209 9.43153 15.8149L9.90368 15.5324L9.36158 15.347C8.59215 15.0822 7.90141 14.4731 7.72655 13.8994C7.67408 13.714 7.69157 13.7052 8.18121 13.7052L8.68833 13.6964L8.2599 13.4933C7.75278 13.2374 7.28937 12.8048 7.06204 12.3635C6.89591 12.0457 6.68607 11.2424 6.74727 11.1806C6.76476 11.1542 6.94837 11.2071 7.15822 11.2777C7.76152 11.4984 7.84021 11.4454 7.49047 11.0747C6.83471 10.4038 6.63361 9.40639 6.94837 8.46189L7.09701 8.03819L7.67408 8.61195C8.85446 9.7683 10.2447 10.4568 11.836 10.6598L12.2732 10.7128Z" fill="#322B6C"/>
</svg>
