<svg width="20" height="17" viewBox="0 0 20 17" fill="none" xmlns="http://www.w3.org/2000/svg">
<path id="Combined-Shape" d="M9.91598 4.84955L9.9569 5.5243L9.2749 5.44167C6.79245 5.12496 4.62372 4.05088 2.78234 2.24697L1.88211 1.3519L1.65023 2.01287C1.1592 3.48629 1.47291 5.04234 2.4959 6.08888C3.04149 6.66723 2.91874 6.74985 1.97759 6.40559C1.65023 6.29543 1.36379 6.21281 1.33651 6.25412C1.24103 6.35051 1.56839 7.60361 1.82755 8.09934C2.18218 8.78785 2.9051 9.4626 3.69621 9.86194L4.36456 10.1787L3.57345 10.1924C2.80962 10.1924 2.78234 10.2062 2.86418 10.4954C3.13697 11.3904 4.21452 12.3406 5.41483 12.7537L6.2605 13.0429L5.52395 13.4835C4.43276 14.117 3.15061 14.475 1.86847 14.5025C1.25467 14.5163 0.75 14.5714 0.75 14.6127C0.75 14.7504 2.41406 15.5215 3.38249 15.8245C6.28778 16.7195 9.73866 16.334 12.3302 14.8055C14.1716 13.7176 16.013 11.5557 16.8723 9.4626C17.3361 8.3472 17.7998 6.3092 17.7998 5.33151C17.7998 4.69808 17.8407 4.61546 18.6046 3.85809C19.0547 3.41744 19.4775 2.93548 19.5593 2.79778C19.6957 2.53614 19.6821 2.53614 18.9865 2.77024C17.8271 3.18335 17.6634 3.12827 18.2363 2.5086C18.6591 2.06795 19.1638 1.26928 19.1638 1.03518C19.1638 0.993871 18.9592 1.06272 18.7273 1.18666C18.4818 1.32436 17.9362 1.53091 17.527 1.65485L16.7905 1.88894L16.1221 1.43452C15.7538 1.18666 15.2355 0.91125 14.9627 0.828628C14.2671 0.635844 13.2032 0.663384 12.5757 0.883709C10.8708 1.50337 9.79322 3.10073 9.91598 4.84955Z" fill="white"/>
</svg>
