<svg width="21" height="21" viewBox="0 0 21 21" fill="none" xmlns="http://www.w3.org/2000/svg">
<g id="Twitter">
<path id="Combined-Shape" fill-rule="evenodd" clip-rule="evenodd" d="M10.168 0.979492C4.64512 0.979492 0.167969 5.45664 0.167969 10.9795C0.167969 16.5023 4.64512 20.9795 10.168 20.9795C15.6908 20.9795 20.168 16.5023 20.168 10.9795C20.168 5.45664 15.6908 0.979492 10.168 0.979492ZM9.88971 9.45353L9.86873 9.10751C9.80577 8.21067 10.3584 7.39152 11.2327 7.07374C11.5545 6.96076 12.1001 6.94663 12.4568 7.0455C12.5967 7.08787 12.8625 7.2291 13.0514 7.35621L13.3941 7.58925L13.7718 7.4692C13.9817 7.40564 14.2615 7.29972 14.3874 7.2291C14.5063 7.16554 14.6112 7.13024 14.6112 7.15142C14.6112 7.27147 14.3524 7.68105 14.1356 7.90702C13.8418 8.2248 13.9257 8.25304 14.5203 8.04119C14.877 7.92114 14.884 7.92114 14.814 8.05532C14.7721 8.12593 14.5552 8.37309 14.3244 8.59907C13.9327 8.98746 13.9117 9.02983 13.9117 9.35467C13.9117 9.85605 13.6739 10.9012 13.4361 11.4732C12.9954 12.5465 12.0511 13.6552 11.1068 14.2131C9.77779 14.997 8.00811 15.1947 6.51822 14.7357C6.02159 14.5803 5.16822 14.1849 5.16822 14.1142C5.16822 14.0931 5.42703 14.0648 5.7418 14.0577C6.39931 14.0436 7.05682 13.86 7.6164 13.5352L7.99412 13.3092L7.56044 13.1609C6.9449 12.9491 6.39231 12.4618 6.25242 12.0028C6.21045 11.8545 6.22444 11.8474 6.61615 11.8474L7.02184 11.8404L6.6791 11.678C6.2734 11.4732 5.90268 11.1271 5.72081 10.7741C5.58791 10.5198 5.42004 9.87723 5.469 9.8278C5.48299 9.80661 5.62988 9.84898 5.79776 9.90548C6.2804 10.082 6.34335 10.0396 6.06356 9.74306C5.53895 9.20637 5.37807 8.4084 5.62988 7.6528L5.74879 7.31384L6.21045 7.77285C7.15475 8.69793 8.26692 9.24874 9.53997 9.41116L9.88971 9.45353Z" fill="#F2F2F2" fill-opacity="0.9"/>
</g>
</svg>
