<svg width="28" height="27" viewBox="0 0 28 27" fill="none" xmlns="http://www.w3.org/2000/svg">
<g id="Youtube">
<path id="Combined-Shape" fill-rule="evenodd" clip-rule="evenodd" d="M13.7158 0.0639648C6.33063 0.0639648 0.34375 6.05085 0.34375 13.436C0.34375 20.8212 6.33063 26.8081 13.7158 26.8081C21.101 26.8081 27.0879 20.8212 27.0879 13.436C27.0879 6.05085 21.101 0.0639648 13.7158 0.0639648ZM19.2875 8.83887C19.9013 9.00728 20.3846 9.50351 20.5487 10.1337C20.8467 11.2758 20.8467 13.6588 20.8467 13.6588C20.8467 13.6588 20.8467 16.0417 20.5487 17.1839C20.3846 17.814 19.9013 18.3102 19.2875 18.4787C18.1753 18.7847 13.715 18.7847 13.715 18.7847C13.715 18.7847 9.25461 18.7847 8.14229 18.4787C7.52855 18.3102 7.04522 17.814 6.88118 17.1839C6.58319 16.0417 6.58319 13.6588 6.58319 13.6588C6.58319 13.6588 6.58319 11.2758 6.88118 10.1337C7.04522 9.50351 7.52855 9.00728 8.14229 8.83887C9.25461 8.5328 13.715 8.5328 13.715 8.5328C13.715 8.5328 18.1753 8.5328 19.2875 8.83887Z" fill="#322B6C"/>
<path id="Fill-2" d="M12.3789 16.1102V11.6528L15.9448 13.8816L12.3789 16.1102Z" fill="#322B6C"/>
</g>
</svg>
