<svg width="28" height="27" viewBox="0 0 28 27" fill="none" xmlns="http://www.w3.org/2000/svg">
<g id="Youtube">
<path id="Combined-Shape" fill-rule="evenodd" clip-rule="evenodd" d="M13.7568 0.0639648C6.37165 0.0639648 0.384766 6.05085 0.384766 13.436C0.384766 20.8212 6.37165 26.8081 13.7568 26.8081C21.142 26.8081 27.1289 20.8212 27.1289 13.436C27.1289 6.05085 21.142 0.0639648 13.7568 0.0639648ZM19.3286 8.83887C19.9423 9.00728 20.4256 9.50351 20.5897 10.1337C20.8878 11.2758 20.8878 13.6588 20.8878 13.6588C20.8878 13.6588 20.8878 16.0417 20.5897 17.1839C20.4256 17.814 19.9423 18.3102 19.3286 18.4787C18.2163 18.7847 13.756 18.7847 13.756 18.7847C13.756 18.7847 9.29562 18.7847 8.18331 18.4787C7.56957 18.3102 7.08623 17.814 6.9222 17.1839C6.62421 16.0417 6.62421 13.6588 6.62421 13.6588C6.62421 13.6588 6.62421 11.2758 6.9222 10.1337C7.08623 9.50351 7.56957 9.00728 8.18331 8.83887C9.29562 8.5328 13.756 8.5328 13.756 8.5328C13.756 8.5328 18.2163 8.5328 19.3286 8.83887Z" fill="#131C6D"/>
<path id="Fill-2" d="M12.4199 16.1102V11.6528L15.9858 13.8816L12.4199 16.1102Z" fill="#131C6D"/>
</g>
</svg>
