<svg width="26" height="26" viewBox="0 0 26 26" fill="none" xmlns="http://www.w3.org/2000/svg">
<path fill-rule="evenodd" clip-rule="evenodd" d="M12.6211 0.120117C5.71753 0.120117 0.121094 5.71656 0.121094 12.6201C0.121094 19.5237 5.71753 25.1201 12.6211 25.1201C19.5247 25.1201 25.1211 19.5237 25.1211 12.6201C25.1211 5.71656 19.5247 0.120117 12.6211 0.120117ZM17.8307 8.32291C18.4044 8.48034 18.8562 8.9442 19.0096 9.53327C19.2882 10.6009 19.2882 12.8285 19.2882 12.8285C19.2882 12.8285 19.2882 15.056 19.0096 16.1237C18.8562 16.7127 18.4044 17.1766 17.8307 17.3341C16.791 17.6201 12.6215 17.6201 12.6215 17.6201C12.6215 17.6201 8.45206 17.6201 7.41229 17.3341C6.83857 17.1766 6.38676 16.7127 6.23342 16.1237C5.95486 15.056 5.95486 12.8285 5.95486 12.8285C5.95486 12.8285 5.95486 10.6009 6.23342 9.53327C6.38676 8.9442 6.83857 8.48034 7.41229 8.32291C8.45206 8.0368 12.6215 8.0368 12.6215 8.0368C12.6215 8.0368 16.791 8.0368 17.8307 8.32291Z" fill="#322B6C"/>
<path d="M11.3711 15.1198V10.9531L14.7044 13.0365L11.3711 15.1198Z" fill="#322B6C"/>
</svg>
