<svg width="21" height="21" viewBox="0 0 21 21" fill="none" xmlns="http://www.w3.org/2000/svg">
<g id="Youtube">
<path id="Combined-Shape" fill-rule="evenodd" clip-rule="evenodd" d="M10.9297 0.979492C5.40684 0.979492 0.929688 5.45664 0.929688 10.9795C0.929688 16.5023 5.40684 20.9795 10.9297 20.9795C16.4525 20.9795 20.9297 16.5023 20.9297 10.9795C20.9297 5.45664 16.4525 0.979492 10.9297 0.979492ZM15.0973 7.54162C15.5562 7.66756 15.9177 8.03865 16.0403 8.50991C16.2633 9.364 16.2633 11.1461 16.2633 11.1461C16.2633 11.1461 16.2633 12.9281 16.0403 13.7822C15.9177 14.2535 15.5562 14.6246 15.0973 14.7506C14.2655 14.9794 10.9299 14.9794 10.9299 14.9794C10.9299 14.9794 7.59435 14.9794 6.76253 14.7506C6.30356 14.6246 5.94211 14.2535 5.81944 13.7822C5.59659 12.9281 5.59659 11.1461 5.59659 11.1461C5.59659 11.1461 5.59659 9.364 5.81944 8.50991C5.94211 8.03865 6.30356 7.66756 6.76253 7.54162C7.59435 7.31273 10.9299 7.31273 10.9299 7.31273C10.9299 7.31273 14.2655 7.31273 15.0973 7.54162Z" fill="#F2F2F2" fill-opacity="0.9"/>
<path id="Fill-2" d="M9.92969 12.9793V9.646L12.5964 11.3127L9.92969 12.9793Z" fill="#F2F2F2" fill-opacity="0.9"/>
</g>
</svg>
